<?xml version="1.0" encoding="utf-8"?>
<!-- Generator: Adobe Illustrator 23.0.3, SVG Export Plug-In . SVG Version: 6.00 Build 0)  -->
<svg version="1.1" id="Layer_1" xmlns="http://www.w3.org/2000/svg" xmlns:xlink="http://www.w3.org/1999/xlink" x="0px" y="0px"
	 viewBox="0 0 197.9 206.3" style="enable-background:new 0 0 197.9 206.3;" xml:space="preserve">
<style type="text/css">
	.st0{fill:#000033;}
</style>
<path class="st0" d="M105.7,64.6v1H85.5v-1h0c0-2.3,10.1-17.7,10.1-17.7S105.7,62.3,105.7,64.6L105.7,64.6z M119.9,48.1
	c-1.8-0.1-3.5,0.5-4.7,1.6c-0.1,0.1,0,0.2,0.1,0.2c0.8-0.2,1.6-0.3,2.5,0c1.9,0.5,3.3,2,3.7,3.9c0.5,3.1-1.9,5.7-4.8,5.7
	c-0.5,0-0.9-0.1-1.3-0.2c-0.1,0-0.2,0.1-0.1,0.2c1.2,1,2.7,1.7,4.3,1.7c3.7,0,6.7-3.1,6.5-6.9C125.9,51,123.2,48.3,119.9,48.1
	 M106,84.5c0,0-0.7-5.1-0.7-6.8c0-2.5,2.4-3.4,2.4-3.4l0.3-5.5l-4.5,0l-0.5,3.4h-3.9l-0.5-3.4h-6.1l-0.5,3.4h-3.9l-0.5-3.4l-4.5,0
	l0.3,5.5c0,0,2.4,0.9,2.4,3.4c0,1.7-0.7,6.8-0.7,6.8H106z M69,79.1l0-1.4c0-4.1-3-6.6-6.6-6.6c-3.6,0-6.6,2.6-6.6,6.6l0,1.4H69z
	 M109.3,87.7H82v4.1c0,0,1.7,0.8,1.7,2.6c0,3.8-2.9,18.8-2.4,29.6h9.5l0.7-10.3c0.3-2.6,2-4.1,4.1-4.1c2.1,0,3.8,1.5,4.1,4.1
	l0.7,10.3h9.5c0.6-10.8-2.4-25.8-2.4-29.6c0-1.9,1.7-2.6,1.7-2.6L109.3,87.7 M99,41.6c0-1.8-1.5-3.3-3.3-3.3c-1.8,0-3.3,1.5-3.3,3.3
	c0,1.8,1.5,3.3,3.3,3.3C97.5,44.9,99,43.4,99,41.6 M68.8,95.2h1.6v-2.4c0,0-2.1-0.4-2.1-2.6h0L68.2,88l2-1.7l0.4-4.4h-3L67.3,85
	h-2.9L64,82h-1.6h-1.6L60.3,85h-2.9L57,82h-3l0.4,4.4l2,1.7l-0.1,2.1h0c0,2.2-2.1,2.6-2.1,2.6v2.4h1.6c-0.1,8.2-4.1,20-4.1,28.9
	h10.6H73C73,115.2,68.9,103.4,68.8,95.2z M135.5,79.1l0-1.4c0-4.1-3-6.6-6.6-6.6c-3.6,0-6.6,2.6-6.6,6.6l0,1.4H135.5z M135.3,95.2
	h1.6v-2.4c0,0-2.1-0.4-2.1-2.6h0l-0.1-2.1l2-1.7l0.4-4.4h-3l-0.4,3.1h-2.9l-0.4-3.1h-1.6h-1.6l-0.4,3.1h-2.9l-0.4-3.1h-3l0.4,4.4
	l2,1.7l-0.1,2.1h0c0,2.2-2.1,2.6-2.1,2.6v2.4h1.6c-0.1,8.2-4.1,20-4.1,28.9h10.6h10.6C139.5,115.2,135.4,103.4,135.3,95.2z
	 M69.4,51.9l-5.2-1.2l3.6,3.9l-3.6,3.9l5.2-1.2l1.6,5.1l1.6-5.1l5.2,1.2l-3.6-3.9l3.6-3.9l-5.2,1.2l-1.6-5.1L69.4,51.9z
	 M141.2,128.2c-6.5,0-9.9,2.5-13,4.2c-2.7,1.5-5,2.9-9.9,2.9c-4.9,0-7.2-1.4-9.9-2.9c-3-1.7-6.4-3.5-12.9-3.6
	c-6.5,0-9.9,1.9-12.9,3.6c-2.7,1.5-5,2.9-9.9,2.9c-4.9,0-7.2-1.4-9.9-2.9c-3-1.7-6.4-4.2-13-4.2c-4.1,0-9.1,1.3-9.1,1.3l3.5,6.2
	c0,0,3-0.5,5.5-0.5c4.9,0,7.5,1.4,10.2,2.9c3,1.7,5.5,4,12.1,4c6.5,0,10.1-2.1,13.1-3.8c2.7-1.5,5.4-2.7,10.2-2.8
	c4.8,0,7.5,1.3,10.2,2.8c3,1.7,6.6,3.8,13.1,3.8c6.5,0,9-2.3,12.1-4c2.7-1.5,5.3-2.9,10.2-2.9c2.5,0,5.5,0.5,5.5,0.5l3.5-6.2
	C150.2,129.5,145.3,128.2,141.2,128.2z M128,146.3c-2.6,1.4-5.2,2.4-10,2.4c-4.8,0-7.3-1.1-9.9-2.5c-2.9-1.6-6.3-3.7-12.5-3.7
	c-6.2,0.1-9.6,2.1-12.5,3.7c-2.6,1.4-5.2,2.5-9.9,2.5c-4.8,0-7.4-1-10-2.4c-2.9-1.6-6.9-4.3-13.4-3.6c9.9,12.8,23.6,12.6,23.6,12.6
	c6,0,9.4-1.2,12.4-2.9c2.6-1.4,5.2-3.2,9.9-3.2c4.6,0,7.3,1.8,9.9,3.2c2.9,1.6,6.4,2.9,12.4,2.9c0,0,13.6,0.2,23.6-12.6
	C134.9,142,131,144.7,128,146.3z M95.6,156.5c-6.3,0-9,4.7-17.3,4.7c3.2,0.9,10.1,2.5,17.3,2.5c7.2,0,14.1-1.5,17.3-2.5
	C104.6,161.2,101.9,156.5,95.6,156.5z M155.4,187.5l3.5-2.6l-15.7-10.1l-3.6,2.3l2.3,18.4l3.7-1.9l-0.6-3.8l7.2-4.5L155.4,187.5z
	 M144.4,186.2l-1-6.8l5.7,3.9L144.4,186.2z M64,183.2l12.3,3.9l-1,3.2l-8.4-2.7l-1,3.2l7,2.2l-1,3.2l-7-2.2l-1.1,3.4l8.4,2.7l-1,3.2
	l-12.3-3.9L64,183.2z M64.6,22.7l-11.7,5.5l-1.4-3.1l8-3.8l-1.4-3l-6.7,3.1l-1.4-3.1l6.7-3.1L55,12l-8,3.8l-1.4-3.1l11.7-5.5
	L64.6,22.7z M181.2,91.3l-0.9-4l6.4-1.4c-1.9-2.1-5.1-4.2-7.8-4.8l-0.9-4.2c3.2,0.5,7.1,3,9.3,5.2l7.3-9.6l1.1,5l-6,7.9l7.4-1.6
	l0.9,4L181.2,91.3z M192.7,129.8l-1.9-3.4c1.9-1,2.9-2.3,3.3-4.1c0.3-1.6-0.1-2.9-1.3-3.2c-1.4-0.3-2.3,1.3-3,3
	c-1.1,3-3,5.8-6.6,5.1c-3.2-0.6-4.7-3.5-3.9-7.5c0.5-2.7,1.6-4.6,4-6l1.8,3.3c-1.3,0.8-2.2,2-2.5,3.5c-0.3,1.6,0.1,2.7,1,2.8
	c1.2,0.2,2.1-1,2.8-2.8c1.3-3.3,3-6,6.8-5.3c3.8,0.8,5,4.2,4.2,7.9C196.8,126.2,195.2,128.3,192.7,129.8z M43.9,172.2l5.6,3.8
	c4.1,2.8,4.5,5.1,3,7.3c-0.9,1.3-2.3,1.9-3.9,1.7c1.5,1.8,1.7,3.7,0.5,5.4c-1.6,2.3-4.3,3.2-8.4,0.4l-6.5-4.4L43.9,172.2z
	 M42.5,188.2c1.5,1,2.7,0.8,3.4-0.2c0.6-0.9,0.5-2.1-1.1-3.2l-3.1-2.1l-2.3,3.4L42.5,188.2z M45.6,181.7c1.3,0.9,2.5,0.9,3.2-0.2
	c0.7-1,0.4-1.9-1.1-3l-2.2-1.5l-2.2,3.2L45.6,181.7z M15.5,134.5l1.8,3.7l-5.9,2.9c2.3,1.6,6,2.9,8.7,2.8l1.9,3.9
	c-3.3,0.3-7.6-1.3-10.2-2.9L6.8,156l-2.2-4.6l4-9l-6.8,3.3L0,142L15.5,134.5z M168.5,149.1l1.7-3.3l13.2-3.2l-9.4-4.5l1.8-3.6
	l15.4,7.4l-1.8,3.5l-0.4-0.2c-0.5-0.3-1.4-0.3-2.3,0l-11.6,2.8l10.4,5.3l-1.8,3.6L168.5,149.1z M89.3,17l-3.6,0.6L75.2,8.8L77.2,19
	l-3.9,0.7L70.1,2.9L74,2.2l0.1,0.4c0.1,0.6,0.6,1.3,1.3,1.9l9.1,7.7L82.7,0.7l4-0.7L89.3,17z M151.4,168.7l3.3-2.9l12.7,4.9
	l-5.6-12.5l2.7-3.4l7.9,17.6l-3,3.1L151.4,168.7z M36.2,165.2l-0.2-2.3l-2.4,0.2c-0.2-0.8-0.5-1.5-0.9-2.3
	c-2.5-4.6-7.9-6.5-12.7-3.9c-3.2,1.7-4.9,4.9-4.8,8.1l-2.5,0.3l0.3,2.3l2.4-0.3c0.2,0.8,0.5,1.6,0.9,2.4c2.5,4.6,7.9,6.5,12.7,3.9
	c3.2-1.8,4.9-4.9,4.8-8.2L36.2,165.2z M21.9,160.5c2.7-1.5,6-0.5,7.5,2.2c0.2,0.3,0.3,0.6,0.4,0.9L19,164.7
	C19.2,163,20.2,161.4,21.9,160.5z M27.1,170.1c-2.7,1.5-6,0.5-7.5-2.2c-0.2-0.3-0.3-0.7-0.4-1l10.8-1.1
	C29.8,167.6,28.8,169.2,27.1,170.1z M159.4,21.7l3.1,2.5l-6.5,9.1l10.8-4.7l1.8,1.8l-4.5,10.9l9-6.7l2.6,3.1l-14,9.8l-2.8-2.8
	l4.3-10.6l-10.6,4.4l-2.9-2.8L159.4,21.7z M128.6,5.1l3.8,1.4l-3.1,10.9l8.6-8l2.3,1.1l-0.5,11.8l6.2-9.4l3.5,2l-9.8,13.9l-3.6-1.7
	l0.5-11.4l-8.5,7.7l-3.7-1.7L128.6,5.1z M86.1,188.9l3.7,0.1l8.7,10.5l0-10.4l4,0.1l0,17.1l-4-0.1l0-0.4c0-0.6-0.3-1.4-1-2.1
	l-7.6-9.3l-0.3,11.7l-4-0.1L86.1,188.9z M115.3,8.9l-1.3,9.8l-4-0.6l1.1-8.9c0.4-3-0.3-4.9-3.1-5.3c-2.9-0.4-4,1.4-4.4,4.4l-1.1,8.9
	l-4-0.5l1.1-9.8c0.6-4.7,3.7-7.4,8.9-6.8C113.5,0.9,115.9,4.3,115.3,8.9z M187.6,55c-2.4-4.6-7.8-6.6-12.6-4.1
	c-4.8,2.5-6.2,8.1-3.8,12.7c2.4,4.6,7.8,6.6,12.6,4.1C188.6,65.2,190,59.6,187.6,55z M181.9,64.1c-2.8,1.5-6,0.4-7.4-2.3
	c-1.4-2.7-0.4-6,2.3-7.4c2.8-1.5,6-0.4,7.4,2.3C185.7,59.4,184.7,62.7,181.9,64.1z M126.4,194.1l-7.5,2.2l1.9,6.8l-4,1.2l-4.6-16.5
	l3.9-1.1l1.8,6.4l7.5-2.2l-1.9-6.3l3.9-1.1l5.1,16.3l-4,1.2L126.4,194.1z"/>
</svg>
