<svg id="Flag" xmlns="http://www.w3.org/2000/svg" viewBox="0 0 82 82"><defs><style>.cls-1{fill:#da4754;}.cls-2{fill:#fff;}.cls-3{fill:#132c43;}</style></defs><title>flag</title><polygon class="cls-1" points="46.37 0 35.63 0 35.63 34.76 0 34.76 0 47.24 35.63 47.24 35.63 82 46.37 82 46.37 47.24 82 47.24 82 34.76 46.37 34.76 46.37 0"/><path class="cls-2" d="M35.68.05H31.25V27.58L4.42,11.64a27.23,27.23,0,0,0-2.71,5.49L23,29.77c0-.07-9.5,0-9.5,0l-13-7.95c.14-.81.31-1.6.52-2.37a28.07,28.07,0,0,0-.94,7.22c0-.35,0-.69,0-1L7,29.77H.05v5H35.68Z" transform="translate(-0.05 -0.05)"/><path class="cls-3" d="M31.25.05h-6.2c-.49,0-1,0-1.46.05l-.45,0c-.34,0-.68.06-1,.1l-.5.06-1,.17-.44.08c-.43.09-.86.19-1.28.31l-.1,0c-.46.13-.91.27-1.36.42l-.34.12-1,.38-.4.17-1,.43-.34.16-1.2.64,0,0c-.43.25-.85.51-1.26.77l-.16.12c-.34.22-.68.46-1,.71L10.52,5l-.91.73-.21.18A25.83,25.83,0,0,0,7.26,8h0c-.33.36-.64.72-1,1.09l-.15.19c-.26.32-.52.65-.77,1l-.14.19c-.29.4-.56.8-.83,1.21h0L31.25,27.58Z" transform="translate(-0.05 -0.05)"/><path class="cls-1" d="M13.48,29.77s9.5-.07,9.5,0L1.71,17.13h0c-.27.75-.51,1.51-.71,2.29v0C.78,20.22.61,21,.47,21.82Z" transform="translate(-0.05 -0.05)"/><path class="cls-3" d="M.07,25.63c0,.35,0,.69,0,1v3.1H7Z" transform="translate(-0.05 -0.05)"/><path class="cls-2" d="M46.42,82.05h4.43V54.52L77.68,70.46A27.23,27.23,0,0,0,80.39,65L59.12,52.33c0,.07,9.5,0,9.5,0l13,8c-.14.81-.31,1.6-.52,2.37a28.07,28.07,0,0,0,.94-7.22c0,.35,0,.69,0,1L75.1,52.33h7v-5H46.42Z" transform="translate(-0.05 -0.05)"/><path class="cls-3" d="M50.85,82.05h6.2c.49,0,1,0,1.46,0L59,82c.34,0,.68-.06,1-.1l.5-.06,1-.17.44-.08c.43-.09.86-.19,1.28-.31l.1,0c.46-.13.91-.27,1.36-.42l.34-.12,1-.38.4-.17.95-.43.34-.16,1.2-.64,0,0c.43-.25.85-.51,1.26-.77l.16-.12c.34-.22.68-.46,1-.71l.26-.19.91-.73.21-.18a25.83,25.83,0,0,0,2.14-2.05h0c.33-.36.64-.72,1-1.09l.15-.19c.26-.32.52-.65.77-1l.14-.19c.29-.4.56-.8.83-1.21h0L50.85,54.52Z" transform="translate(-0.05 -0.05)"/><path class="cls-1" d="M68.62,52.33s-9.5.07-9.5,0L80.39,65h0c.27-.75.51-1.51.71-2.29v0c.21-.77.38-1.56.52-2.37Z" transform="translate(-0.05 -0.05)"/><path class="cls-3" d="M82,56.47c0-.35,0-.69,0-1v-3.1h-7Z" transform="translate(-0.05 -0.05)"/><path class="cls-2" d="M82,25.63c0,.35,0,.69,0,1a28.07,28.07,0,0,0-.94-7.22c.21.77.38,1.56.52,2.37l-13,8s-9.5-.07-9.5,0L80.39,17.13a27.23,27.23,0,0,0-2.71-5.49L50.85,27.58V.05H46.42V34.81H82.05v-5h-7Z" transform="translate(-0.05 -0.05)"/><path class="cls-3" d="M77.68,11.64h0c-.27-.41-.54-.81-.83-1.21l-.14-.19c-.25-.34-.51-.67-.77-1l-.15-.19c-.31-.37-.62-.73-1-1.09h0a25.83,25.83,0,0,0-2.14-2l-.21-.18L71.58,5l-.26-.19c-.33-.25-.67-.49-1-.71L70.15,4c-.41-.26-.83-.52-1.26-.77l0,0-1.2-.64-.34-.16L66.37,2,66,1.8l-1-.38-.34-.12c-.45-.15-.9-.29-1.36-.42l-.1,0c-.42-.12-.85-.22-1.28-.31L61.45.47l-1-.17L60,.24c-.33,0-.67-.08-1-.1l-.45,0c-.48,0-1,0-1.46,0h-6.2V27.58Z" transform="translate(-0.05 -0.05)"/><path class="cls-1" d="M68.62,29.77l13-7.95c-.14-.81-.31-1.6-.52-2.37v0c-.2-.78-.44-1.54-.71-2.29h0L59.12,29.77C59.12,29.7,68.62,29.77,68.62,29.77Z" transform="translate(-0.05 -0.05)"/><path class="cls-3" d="M82,25.63,75.1,29.77h7v-3.1C82.05,26.32,82,26,82,25.63Z" transform="translate(-0.05 -0.05)"/><path class="cls-2" d="M.05,47.29v5H7L.07,56.47c0-.35,0-.69,0-1A28.07,28.07,0,0,0,1,62.65c-.21-.77-.38-1.56-.52-2.37l13-8s9.5.07,9.5,0L1.71,65a27.23,27.23,0,0,0,2.71,5.49L31.25,54.52V82.05h4.43V47.29Z" transform="translate(-0.05 -0.05)"/><path class="cls-3" d="M4.42,70.46h0c.27.41.54.81.83,1.21l.14.19c.25.34.51.67.77,1l.15.19c.31.37.62.73,1,1.09h0A25.83,25.83,0,0,0,9.4,76.18l.21.18.91.73.26.19c.33.25.67.49,1,.71l.16.12c.41.26.83.52,1.26.77l0,0,1.2.64.34.16,1,.43.4.17,1,.38.34.12c.45.15.9.29,1.36.42l.1,0c.42.12.85.22,1.28.31l.44.08,1,.17.5.06c.33,0,.67.08,1,.1l.45,0c.48,0,1,0,1.46,0h6.2V54.52Z" transform="translate(-0.05 -0.05)"/><path class="cls-1" d="M13.48,52.33l-13,8c.14.81.31,1.6.52,2.37v0c.2.78.44,1.54.71,2.29h0L23,52.33C23,52.4,13.48,52.33,13.48,52.33Z" transform="translate(-0.05 -0.05)"/><path class="cls-3" d="M7,52.33H.05v3.1c0,.35,0,.69,0,1Z" transform="translate(-0.05 -0.05)"/></svg>