<?xml version="1.0" encoding="utf-8"?>
<!-- Generator: Adobe Illustrator 23.0.3, SVG Export Plug-In . SVG Version: 6.00 Build 0)  -->
<svg version="1.1" id="Layer_1" xmlns="http://www.w3.org/2000/svg" xmlns:xlink="http://www.w3.org/1999/xlink" x="0px" y="0px"
	 viewBox="0 0 1001.2 127.4" style="enable-background:new 0 0 1001.2 127.4;" xml:space="preserve">
<g id="ZDZ9bk.tif_3_">
	<g>
		<path d="M475.7,85.1c-3.2,9.2-8.9,11.5-17.2,7.4c1.9-1.7,4.3-3.1,5.6-5.1c1.3-2,1.6-4.6,2.3-6.9c-10.7-10.5-14.2-22.4-8.4-36
			c5.4-12.7,16.5-16.5,29.5-17.3c-0.4-11.4,6.9-17.4,16-21.7c13.2-6.3,27.1-6.6,41.2-3.5c6.4,1.4,12.3,4,17.4,8.2
			c1.4,1.2,2.8,2.6,3.9,4c6.9,8.5,4.8,17.6-2.6,24.3c-2.7,2.4-5.8,4.2-8.7,6.3c-0.1,5.8,4.8,7.5,8.8,10.8
			c-8.8,0.7-15.6-1.5-20.7-6.6c-8,0.2-15.4,0.5-22.8,0.7c0.1,2.8,0.5,5.7,0.3,8.6c-0.5,11.5-7,21.7-18.9,25.8
			c-7.4,2.5-14.8,2.8-22.4,1.3C478,85.1,476.9,85.2,475.7,85.1z"/>
		<path d="M125.5,32.9c2.2-2,4.2-3.7,6.7-5.9c1.4,1.4,2.8,2.7,4.5,4.3c-2.1,2.2-3.9,4.1-5.9,6.1c1.3,2.3,2.9,4.5,3.9,6.9
			c6.9,16.7-0.4,36.9-22.2,40.8c-9.3,1.7-18.2,0.4-26.9-4.1c-2.4,2.2-4.9,4.3-7.8,6.9c-1.4-1.4-2.8-2.8-4.7-4.5
			c2.5-2.1,4.8-4,7.3-6.2c-1.4-2.2-2.3-4-3.4-5.6C68.3,58.8,72.9,38.1,88,31.1c11.7-5.5,23.5-5.1,35.1,0.6
			C123.8,32.1,124.5,32.4,125.5,32.9z M113.5,44.5c-7.2-3.7-14.3-3.1-18.9,1c-4.4,3.9-6.1,12.6-2.2,19.2
			C99.7,58.2,106.5,51.4,113.5,44.5z M97.8,69c7.4,4.1,15.2,1.7,19-2.7c3.6-4.3,4.2-11.5,1-16.5C111.2,56.1,104.7,62.4,97.8,69z"/>
		<path d="M45.1,28.3c6,0,11.2,0,16.3,0c1.1,3.3,1.3,51.3,0.3,56.8c-4.9,0-9.9,0-14.9,0c-9.7-10.3-19.2-20.6-29.5-31.6
			c0,11.1,0,21.2,0,31.6c-5.8,0-11.1,0-16.4,0c-1-3.7-1.1-50.1-0.2-56.7c4.8,0,9.6,0,14.8,0c4.6,4.9,9.5,10,14.4,15.2
			C34.7,48.8,39.5,54,45.1,60C45.1,48.9,45.1,38.8,45.1,28.3z"/>
		<path d="M506.7,127.4c5.1-4.6,7.7-10,7.2-17.2c-9.7-1-18.6-3.9-25.8-10.4c-2.4-2.1-4.9-4.4-5.7-8.3c10.9,0.7,21.2-0.1,30.1-6.6
			c9.1-6.6,13-15.9,13.7-27.1c1.9,0,3.6-0.2,5.2,0c5.4,0.9,10.3,2.8,14.9,5.8c11.7,7.7,14.6,26,2.3,36.3c-5.2,4.4-11,7.3-17.6,8.9
			c-1,0.2-2.1,0.5-3.4,0.9C525,120.7,518.6,127.4,506.7,127.4z"/>
		<path d="M293.9,39.5c0,3.8,0,6.8,0,10c3.8,1.4,7.8,0.4,11.6,0.6c3.9,0.2,7.9,0,12.2,0c0,3.8,0,7.3,0,11.3c-7.8,0-15.6,0-23.7,0
			c0,4.4,0,8.2,0,12.7c8.5,0,17,0,25.7,0c0,4,0,7.3,0,11c-14.4,0-28.5,0-42.9,0c0-18.9,0-37.7,0-56.7c13.9,0,27.8,0,42,0
			c0,3.5,0,7,0,11.1C310.6,39.5,302.5,39.5,293.9,39.5z"/>
		<path d="M354.3,84.9c0-2.7,0-5.5,0-8.3c4.1-1.6,8.5-2.1,11.9-5.9c0.1-0.9,0.3-2.2,0.5-3.4c-3-4.5-7.6-5.3-12.3-6.6
			c0-2.9,0-5.8,0-9.1c1.4-0.2,2.8-0.4,4.1-0.6c3.8-0.7,5.2-2.3,5.3-6c0.1-4-0.9-5.5-4.7-6.5c-1.5-0.4-3-0.7-4.8-1.1
			c0-2.9,0-5.7,0-8.8c5.8-0.6,11.5-0.6,17.1,1.5c10.9,4.2,10.1,15.6,4.7,21.2c-1,1-2.1,1.8-3.6,3.1c1.7,1.1,3.2,2,4.6,2.8
			c5.9,3.4,7.5,8.7,6.6,15c-0.9,6-4.4,9.8-10.4,11.5C367.2,85.3,361.7,85.9,354.3,84.9z"/>
		<path d="M417.9,63.2c0-3.5,0-6.5,0-9.5c2.8-1.9,6.9-0.6,8.9-4c1.6-7.4,0.6-8.7-8.8-11c0-3.3,0-6.7,0-10.4
			c7.1-0.3,13.8-0.5,19.7,3.7c9.9,7,9.8,20-0.1,27c-0.5,0.3-0.9,0.7-1.4,1.2c7.7,6.6,9.9,16,14.7,24.9c-6.5,0.5-12.2,0.2-18.3,0.1
			c-1-2-1.9-4-2.8-6c-1.5-3.1-2.9-6.3-4.5-9.4C423.5,67,421.6,64.3,417.9,63.2z"/>
		<path d="M235.7,62.8c0-3.2,0-6.2,0-9.4c2.4-0.6,4.6-1.2,6.9-1.8c3.4-3.6,3.5-5.7,0.5-10.9c-2-0.5-4.4-1.2-7.2-1.9
			c0-3.3,0-6.6,0-10.3c6.6-0.7,12.9-0.3,18.7,3c9.6,5.6,11.4,21.9,0.6,27.6c-0.4,0.2-0.7,0.6-1.4,1.1c7.7,6.5,9.9,16,14.5,24.9
			c-6.4,0-12.2,0-18,0C245.3,77.8,244.6,67.8,235.7,62.8z"/>
		<path d="M172.1,38.8c0-3.5,0-6.8,0-10.3c5.1-0.7,10.3-0.3,15.3,1.3c7.9,2.5,13.5,11.2,10.9,20.9c-0.7,2.4-2.7,4.5-4.3,6.6
			c-0.9,1.2-2.4,1.9-3.6,2.9c5.5,5.8,11,15.6,13.9,25c-6,0-11.9,0-17.8,0c-2-4.3-3.8-8.4-5.8-12.5c-1.9-4-4.1-7.9-8.5-9.6
			c0-3.2,0-6.2,0-9.6c1.6-0.3,3.3-0.6,4.9-1c3.1-0.8,4.5-2.7,4.6-5.7c0.1-3-1.3-5.4-4-6.3C176,39.6,174.3,39.3,172.1,38.8z"/>
		<path d="M348.5,28.2c0,19.4,0,38.2,0,57.1c-5.6,0-11.1,0-16.7,0c0-18.8,0-37.6,0-56.9c2.8-0.1,5.5-0.1,8.3-0.2
			C342.7,28.2,345.4,28.2,348.5,28.2z"/>
		<path d="M149.9,28.3c5.5,0,10.7,0,15.8,0c1,3.4,1.3,48.8,0.4,56.9c-5.3,0-10.6,0-15.9,0C149.2,82,148.9,35.2,149.9,28.3z"/>
		<path d="M229.8,85.2c-5.5,0-10.9,0-16.5,0c0-18.6,0-37.4,0-56.8c5.4-0.4,10.8-0.2,16.5-0.1C229.8,47.3,229.8,66.1,229.8,85.2z"/>
		<path d="M395.5,28.3c5.7,0,10.9,0,16.4,0c0,18.9,0,37.6,0,56.9c-5.3,0.4-10.7,0.1-16.4,0.1C395.5,66.3,395.5,47.5,395.5,28.3z"/>
		<path d="M605.6,70.5c-0.1-8.1,3.2-13,9.3-15.9c5.7-2.7,11.7-2.7,17.4,0c5.7,2.6,9.2,7,9.6,13.5c0.5,6.9-2.5,12-8.4,15.2
			c-7,3.8-14.3,3.8-21.1-0.8C607.8,79.4,605.3,75,605.6,70.5z M623.5,81.6c10.4,0.4,14.8-8.6,13.4-14.8c-1.2-5.3-5.2-8.8-11.3-9.8
			c-5.3-0.9-11.3,1.8-13.7,6.4C607.6,71.6,612.5,81.8,623.5,81.6z"/>
		<path d="M816.7,85.2c0-10.8,0-21.2,0-31.9c7.4-0.7,14.7-1.1,21.5,1.6c8.7,3.3,12.4,14.5,7.1,22.6c-3,4.6-7.4,7.4-12.9,7.6
			C827.4,85.4,822.4,85.2,816.7,85.2z M821.4,81.3c3.7,0,7,0.3,10.3-0.1c5.5-0.5,9.3-3.5,11-8.9c1-3.2,0.2-6.2-1.1-9.2
			c-5.2-7.1-12.6-6.4-20.2-6C821.4,65.3,821.4,73,821.4,81.3z"/>
		<path d="M1000.5,55.4c0,1.5,0,2.5,0,3.7c-0.7-0.1-1.2,0-1.5-0.1c-4.6-1.7-9.2-3.1-14.3-1.6c-5.6,1.7-9,6.4-9,12.3
			c-0.1,5.9,4.8,10.9,9.7,11.8c3.9,0.7,7.4,0.4,11.2-1c0-2.1,0-4.1,0-6.5c-2-0.2-3.9-0.4-6.1-0.6c0-1.1,0-2.1,0-3.4
			c3.5,0,7,0,10.7,0c0,4.3,0,8.5,0,12.7c-6.8,4.8-19.2,4-25.5-1.5c-7-6.1-7.1-20,3.1-25.9C985.9,51.3,993,52.6,1000.5,55.4z"/>
		<path d="M771.5,53.5c1.6-0.1,2.8-0.2,4.1-0.3c0.3,1,0.6,1.7,0.6,2.5c0.1,5.8,0.1,11.7,0.2,17.5c0.1,5.4,2.1,7.7,7.6,8.4
			c2.1,0.3,4.4,0.1,6.5-0.6c3.1-0.9,5.1-3,5.2-6.6c0.1-5.2,0.1-10.4,0.2-15.6c0-1.7,0-3.4,0-5.4c1.7-0.1,2.9-0.2,4.7-0.3
			c0,3.3,0,6.3,0,9.2c0,4.1-0.1,8.2-0.2,12.3c-0.2,4.5-2.5,7.7-6.6,9.5c-5.9,2.6-11.7,2.2-17.2-1c-2.6-1.5-4.2-3.9-4.6-6.8
			c-0.3-2.7-0.3-5.4-0.4-8C771.5,63.5,771.5,58.6,771.5,53.5z"/>
		<path d="M664.9,68.5c5.9,5.5,11.4,10.7,17.7,16.6c-2.7,0-4.4,0-6,0c-6.1-4.6-10.8-10.6-17.6-15.4c0,5.7,0,10.5,0,15.8
			c-1.7-0.2-3-0.3-4.4-0.5c0-10.6,0-20.9,0-31.4c0.9-0.2,1.4-0.4,2-0.4c0.6,0,1.2,0.1,2.2,0.3c0,4.5,0,8.8,0,13.6
			c3.8-1.4,5.4-4.5,7.7-6.6c2.4-2.2,4.6-4.7,7-7.2c1.7,0,3.2,0,5.7,0C674.2,58.5,669.8,63.2,664.9,68.5z"/>
		<path d="M906.7,53c1.4,0.1,2.3,0.1,3.4,0.2c4.9,10.5,9.8,20.8,15,31.8c-1.8,0.2-3.1,0.3-4.4,0.4c-1.7-3.3-3.2-6.4-4.8-9.4
			c-4.8,0-9.4,0-14.4,0c-1.4,2.9-2.8,6-4.3,9.2c-1.4,0.1-2.8,0.3-4.8,0.4C897.2,74.4,901.9,63.8,906.7,53z M903.2,71.6
			c4,0,7.2,0,10.8,0c-1.9-3.9-3.6-7.3-5.7-11.4C906.4,64.4,904.9,67.8,903.2,71.6z"/>
		<path d="M707,53.2c1.3-0.1,2.2-0.1,3.4-0.2c4.9,10.5,9.8,21,14.8,31.6c-0.9,0.4-1.3,0.7-1.7,0.7c-0.9,0-1.8-0.2-2.9-0.3
			c-1.4-3-2.8-6-4.3-9.1c-4.8,0-9.5,0-14.6,0c-1.4,2.9-2.9,6-4.4,9.2c-1.3,0.1-2.5,0.2-4,0.4c0-0.8-0.2-1.4,0-1.9
			c2.8-6.5,5.7-12.9,8.6-19.4C703.5,60.7,705.2,57.1,707,53.2z M703.5,71.7c3.9,0,7,0,10.6,0c-1.8-3.9-2.9-7.7-5.7-11.2
			C706.7,64.3,705.3,67.7,703.5,71.7z"/>
		<path d="M872.1,86.7c-5.2-11.5-10-22-15-33.1c1.7-0.2,2.8-0.3,4.4-0.5c3.4,7.4,6.7,14.7,10.4,22.8c3.6-7.8,6.9-15,10.2-22.4
			c1.4,0,2.7,0,4.6,0C881.9,64.4,877.2,75,872.1,86.7z"/>
		<path d="M938.4,85c0-10.6,0-20.9,0-31.6c1.6,0,2.9,0,4.6,0c0,9.4,0,18.4,0,27.8c5.2,0,10,0,15.2,0c0,1.4,0,2.4,0,3.7
			C951.7,85,945.3,85,938.4,85z"/>
		<path d="M738.9,53.4c1.6,0,2.8,0,4.5,0c0,9.3,0,18.4,0,28c5.2,0,10.1,0,15,0c0,1.4,0,2.3,0,3.8c-6.4,0.4-12.8,0-19.5,0.3
			C738.9,74.9,738.9,64.3,738.9,53.4z"/>
		<path d="M580.9,53.1c0,9.8,0,18.7,0,28.2c5,0,9.8,0,14.9,0c0.1,1.5,0.2,2.5,0.3,3.8c-6.7,0-13.1,0-19.7,0c0-10.3,0-20.7,0-31.6
			C577.8,53.3,579,53.2,580.9,53.1z"/>
	</g>
</g>
</svg>
