<svg id="Layer_1" data-name="Layer 1" xmlns="http://www.w3.org/2000/svg" viewBox="0 0 1920.94 125.14"><defs><style>.cls-1{fill:#d2e8f4;}.cls-2{fill:#ebeef2;}.cls-3{fill:#c3856a;stroke:#b37a61;stroke-miterlimit:10;}.cls-4{fill:#f8fafd;}</style></defs><title>rail</title><g id="Top"><g id="Snow_bellow_rail" data-name="Snow bellow rail"><path class="cls-1" d="M868.57,42.25,849.88,43a20.78,20.78,0,0,0-4.28.47c-3.06.79-5,2.84-7.13,4.53a17.13,17.13,0,0,1-8.3,3.68c-3.23.43-6.57-.22-9.87-.19-7,.06-13.18,3.14-20,4.13-7.52,1.08-15.77-.57-21.39-4.28-3-2-5.27-4.46-8.83-5.81a21.23,21.23,0,0,0-6.33-1.21c.25,4.61-.16,9.28-.06,13.9.06,2.94.18,5.87.31,8.81,1.86,2.86,4,5.72,7.68,7.45,4.19,2,11,1.61,13-1.59a11.56,11.56,0,0,1,7.9.23c2.49.9,4.62,2.23,7,3.24,8.16,3.38,19.53,2.27,25.91-2.55,4-3,6.91-7.51,12.75-7.91,3.13-.21,6.36.91,9.35.26a11.22,11.22,0,0,0,3.84-1.78,35.58,35.58,0,0,0,7.68-6.75,24.06,24.06,0,0,1,4.31-4.57c2.8-2,6.84-2.86,10.77-3.47q6.65-5.05,13.27-10.16C881.14,40.24,875.15,42,868.57,42.25Z" transform="translate(0.42 0.03)"/><path class="cls-1" d="M1643.53,45.17c-9.34.81-16.83,4.08-26.17,4.94a128,128,0,0,0-13.87,2.53c-8.92,1.81-19.08,1.5-28.23,2.85-16.13,2.36-32.48-2.36-49-1.52-1.9.09-3.8.27-5.69.47,2.17,2.72,3,6.58,4.33,9.68,6.12,0,10.32.37,14.52,1.61,3.53,1,6.79,2.34,10.42,3.27a59.82,59.82,0,0,0,26.93.21c6.72-1.53,13.7-4.29,20.4-3.06,3.48.64,6,2.25,8.74,3.55s6.55,2.35,10.08,1.62c9.16-1.88,19.39-2.87,26.26-6.78,3.24-1.84,16.34-8.87,19.8-10.56.59-3.49-8.4-2.07-6.89-5.28C1652,49.47,1646.91,44.87,1643.53,45.17Z" transform="translate(0.42 0.03)"/><path class="cls-1" d="M1252.1,45.66c15.51.88,28.55,7.88,44,9.21a98.93,98.93,0,0,0,34.51-3.11c5.89-1.64,11.52-3.84,17.71-4.78a44.78,44.78,0,0,1,10.09-.36,40.8,40.8,0,0,1,6.07,13.13c-3.41,1.56-6.48,4-10.08,5.38A23.64,23.64,0,0,1,1342,66.32c-5.18-.91-10.37-3.54-15.36-2.13-3.66,1-5.59,3.92-9,5.3s-7.42,1.05-11.06.34-7.15-1.82-10.93-2c-5.84-.35-11.88,1.47-17.49.29-6.6-1.38-10.21-6.37-15.65-9.23C1259.11,54.36,1255.68,49.94,1252.1,45.66Z" transform="translate(0.42 0.03)"/><path class="cls-1" d="M1363.69,49.17c4.13,1.77,8.06,4,13.06,4.57,5.33.65,10.77-.63,16.21-.88a69.65,69.65,0,0,1,12.34.75c6.25,3.31,12.72,6.31,19.35,9-5.15-.6-10.4-1.81-15.52-1.22s-9.07,2.78-13.89,3.77c-6.39,1.32-13.93.22-18.54-2.68a27,27,0,0,0-3.39-2.1c-4.34-1.94-11.26-1-16-2.06a24.16,24.16,0,0,1-3-11.66A29.82,29.82,0,0,1,1363.69,49.17Z" transform="translate(0.42 0.03)"/><path class="cls-1" d="M1039.55,65c5.75-2,11.44-4.13,17-6.56-6-.72-12-1.32-17.61-.52-12.73,1.83-25.18-3-37.87-5.59-3.36,3.65-6.56,7.47-9.65,11.37a22,22,0,0,1,2.35,1.1c2.36,1.3,4.33,2.93,6.72,4.21a28.82,28.82,0,0,0,18.79,2.42c5.49-1.16,11.52-2.52,16.94-4A6.64,6.64,0,0,1,1039.55,65Z" transform="translate(0.42 0.03)"/><path class="cls-1" d="M92,45.76l18.69-.57a21.25,21.25,0,0,1,4.31.17c3.1.56,5.16,2.47,7.44,4A17.09,17.09,0,0,0,131,52.45c3.26.19,6.54-.7,9.83-.9,7-.44,13.38,2.2,20.29,2.7,7.57.54,15.68-1.7,21-5.8,2.81-2.16,4.95-4.82,8.4-6.42,5.08-2.36,11.53-1.84,17.45-2.5a164.38,164.38,0,0,0-8.28,17.81,6.92,6.92,0,0,0-.44,3.61c-.16.3-.33.6-.48.89C197,65.2,195.05,68.76,191,71s-10.83,2.39-13-.67a11.61,11.61,0,0,0-7.86.8c-2.43,1.07-4.45,2.56-6.79,3.73-7.89,4-19.31,3.65-26-.7-4.18-2.7-7.43-7-13.29-7-3.13,0-6.27,1.36-9.31.93a11,11,0,0,1-4-1.51,35.69,35.69,0,0,1-8.14-6.18A23.91,23.91,0,0,0,98,56.19c-2.93-1.8-7-2.37-11-2.69q-7-4.57-14-9.19C79.35,44.64,85.46,46,92,45.76Z" transform="translate(0.42 0.03)"/><path class="cls-1" d="M423,53.58c-7.39.73-13.29,3.93-20.67,4.7a83.49,83.49,0,0,0-11,2.4c-7,1.73-15.09,1.33-22.31,2.59-12.75,2.22-25.73-2.65-38.78-2-1.51.08-3,.24-4.5.42,1.74,2.75,2.41,6.61,3.51,9.72,4.84.1,8.18.47,11.51,1.75,2.8,1.07,5.4,2.39,8.28,3.36A37.92,37.92,0,0,0,370.4,77c5.31-1.47,10.81-4.17,16.12-2.88,2.76.68,4.74,2.3,7,3.63s5.21,2.41,8,1.71c7.23-1.8,15.32-2.69,20.72-6.53,2.54-1.82,12.85-8.73,15.57-10.38.44-3.48-6.66-2.14-5.5-5.34C429.77,58,425.68,53.32,423,53.58Z" transform="translate(0.42 0.03)"/><path class="cls-1" d="M681.09,45.66c-15.5.88-28.54,7.88-44,9.21a99,99,0,0,1-34.51-3.11c-5.89-1.64-11.52-3.84-17.7-4.78a44.89,44.89,0,0,0-10.1-.36,40.8,40.8,0,0,0-6.07,13.13c3.42,1.56,6.48,4,10.09,5.38a23.62,23.62,0,0,0,12.43,1.19c5.18-.91,10.37-3.54,15.35-2.13,3.66,1,5.59,3.92,9,5.3s7.41,1.05,11,.34,7.16-1.82,10.93-2c5.84-.35,11.89,1.47,17.49.29,6.61-1.38,10.21-6.37,15.65-9.23C674.08,54.36,677.52,49.94,681.09,45.66Z" transform="translate(0.42 0.03)"/><path class="cls-1" d="M733.15,49.17c-3.55,1.77-6.92,4-11.2,4.57-4.57.65-9.23-.63-13.9-.88a51.34,51.34,0,0,0-10.58.75,180.76,180.76,0,0,1-16.58,9c4.41-.6,8.91-1.81,13.3-1.22s7.77,2.78,11.9,3.77c5.48,1.32,11.95.22,15.9-2.68a23.23,23.23,0,0,1,2.91-2.1c3.72-1.94,9.65-1,13.76-2.06a27.27,27.27,0,0,0,2.59-11.66A22.63,22.63,0,0,0,733.15,49.17Z" transform="translate(0.42 0.03)"/><path class="cls-1" d="M356.15,65q8.64-2.93,17-6.56c-6-.72-12-1.32-17.61-.52-12.74,1.83-25.18-3-37.88-5.59-3.35,3.65-6.55,7.47-9.65,11.37a20.31,20.31,0,0,1,2.35,1.1c2.37,1.3,4.34,2.93,6.73,4.21a28.79,28.79,0,0,0,18.78,2.42c5.5-1.16,11.52-2.52,16.95-4A6.57,6.57,0,0,1,356.15,65Z" transform="translate(0.42 0.03)"/><path class="cls-1" d="M1197.68,40.46c-8.79,3.57-17.15,8-27.78,9.21-11.33,1.3-22.91-1.28-34.47-1.78a158.4,158.4,0,0,0-26.25,1.51c-13.29,6.65-27,12.69-41.15,18.22,10.94-1.21,22.11-3.65,33-2.46,10.63,1.16,19.27,5.6,29.53,7.59,13.58,2.64,29.63.44,39.44-5.4,2.39-1.43,4.44-3,7.21-4.22,9.22-3.9,23.93-2.11,34.13-4.15a46.38,46.38,0,0,0,6.44-23.45A65.93,65.93,0,0,0,1197.68,40.46Z" transform="translate(0.42 0.03)"/><path class="cls-1" d="M1898.79,50.53,1870,48.87a49.15,49.15,0,0,0-6.63-.09c-4.77.39-7.89,2.18-11.36,3.59A34.73,34.73,0,0,1,1838.9,55c-5,0-10.1-1.08-15.19-1.48-10.81-.84-20.56,1.43-31.2,1.52-11.66.1-24.22-2.61-32.56-7-4.38-2.33-7.74-5.12-13.12-6.94a49.3,49.3,0,0,0-9.63-2c0,4.63-1,9.23-1.26,13.84-.15,2.94-.22,5.88-.26,8.82a26.86,26.86,0,0,0,11.2,8.43c6.27,2.5,16.77,3,20.1.09a27.22,27.22,0,0,1,12.14,1.25c3.77,1.23,6.93,2.83,10.56,4.15,12.27,4.43,29.87,4.79,40.1.82,6.37-2.47,11.27-6.59,20.3-6.23,4.82.2,9.71,1.73,14.37,1.48a22.9,22.9,0,0,0,6.06-1.28,55.5,55.5,0,0,0,12.39-5.73,33.12,33.12,0,0,1,7-4c4.48-1.63,10.77-2,16.86-2L1920,53.36v-3C1913.06,50.56,1906.13,51,1898.79,50.53Z" transform="translate(0.42 0.03)"/></g><g id="Snow_grey" data-name="Snow grey"><path class="cls-2" d="M1851.74,3.33c-23.61.68-45.27,10.43-67.48,9.7-16.57-.55-33.25.06-49.7-1.33-20.06-1.7-39.22-6.34-59-8.91C1651.68-.3,1627.13-.37,1602.83.35A1111,1111,0,0,0,1485.75,10a155.17,155.17,0,0,1-42.94,0c-25.09-3.64-50-4.16-75.48-4.45-6.13-.07-12.26.16-18.38.59,0,.12,0,.25,0,.37-7.72-.66-15.46-1-23.21-1-25.48.29-50.39.81-75.47,4.45a155.24,155.24,0,0,1-43,0A1110.79,1110.79,0,0,0,1090.23.35c-24.3-.72-48.84-.65-72.68,2.44-19.83,2.57-39,7.21-59,8.91-16.44,1.39-33.13.78-49.7,1.33-22.21.73-43.87-9-67.48-9.7-27-.77-54.56,13.44-81.61,13.66l-2.12,0c-37.68-.64-76.38-11.93-115.26-11.49-25.47.29-50.38.81-75.47,4.45a155.24,155.24,0,0,1-43,0A1110.57,1110.57,0,0,0,406.83.35C382.54-.37,358-.3,334.16,2.79c-19.84,2.57-39,7.21-59.05,8.91-16.45,1.39-33.14.78-49.7,1.33-22.21.73-43.87-9-67.48-9.7-27-.77-52.76,9-79.81,9.21-26.27.22-52.07,4.62-78,7.11V50.83l.08,0c8.46,4,19.82,4.7,30.16,3.48s19.91-4.2,29.34-7.15A73.51,73.51,0,0,1,90.09,45c12.79,1.78,27.13-5.67,38.85-2,4.21,1.34,7.2,3.94,11.47,5.2,8.19,2.44,18.61-.69,26.63,2,3.93,1.3,6.52,3.77,9.79,5.68,6.22,3.63,15.3,5.16,23.53,4,7.51-1.08,14.23-4.26,21.93-4.42,3.62-.08,7.29.52,10.84,0a19.69,19.69,0,0,0,9-3.8c2.34-1.73,4.41-3.81,7.75-4.64a24.86,24.86,0,0,1,4.69-.53l20.5-1C284.79,45,293.28,41.87,303,42c5,0,9.83,1.19,14.72,1.95a97.06,97.06,0,0,0,26.54.39,37.11,37.11,0,0,1,6.14-.48A34.63,34.63,0,0,1,356.78,45a92.63,92.63,0,0,0,26.47,2c4.09-.28,8.15-.82,12.26-.91,14.34-.3,28.43,4.94,42.48,3.1,8-1,16.78-.42,24.56-1.94a98.61,98.61,0,0,1,12.1-2.08c8.12-.55,16.23,1.71,24.36,1.2,7.76-.49,14.58-3.42,22.1-4.74A54.22,54.22,0,0,1,537,41.24c6.8.85,13,3,19.51,4.52a118.57,118.57,0,0,0,37.92,2.62c17.07-1.57,29.59,6.38,46.77,5.36,20.09-1.18,41.12-6.07,60.81-8.92,11.93-1.72,25.64,1.86,37.84,1.3,8.07-.37,15.82-2.67,23.87-2.61,0,.29,0,.57,0,.86a72.58,72.58,0,0,1,9.78.65c12.79,1.78,27.12-5.67,38.85-2,4.21,1.34,7.2,3.94,11.46,5.2,8.2,2.44,18.61-.69,26.63,2,3.94,1.3,6.52,3.77,9.79,5.68,6.23,3.63,15.31,5.16,23.53,4,7.52-1.08,14.23-4.26,21.93-4.42,3.63-.08,7.3.52,10.84,0a19.65,19.65,0,0,0,9-3.8c2.35-1.73,4.41-3.81,7.76-4.64a24.76,24.76,0,0,1,4.69-.53l20.49-1c9.69-.49,18.18-3.63,27.89-3.54,5,0,9.84,1.19,14.72,1.95a97.06,97.06,0,0,0,26.54.39,37.23,37.23,0,0,1,6.15-.48,34.38,34.38,0,0,1,6.37,1.13,92.7,92.7,0,0,0,26.48,2c4.09-.28,8.14-.82,12.26-.91,14.33-.3,28.42,4.94,42.47,3.1,8-1,16.79-.42,24.57-1.94A98.45,98.45,0,0,1,1158,45.16c8.13-.55,16.24,1.71,24.37,1.2,7.76-.49,14.58-3.42,22.09-4.74a54.29,54.29,0,0,1,15.85-.38c6.8.85,13,3,19.5,4.52a118.59,118.59,0,0,0,37.92,2.62c17.08-1.57,29.6,6.38,46.77,5.36,7.66-.45,15.46-1.44,23.27-2.65,0,.13,0,.25,0,.38,7,1,13.9,1.87,20.73,2.27,17.18,1,29.7-6.93,46.77-5.36a118.57,118.57,0,0,0,37.92-2.62c1.79-.42,3.56-.89,5.33-1.37a26,26,0,0,0,4.91-.18,27.65,27.65,0,0,0,8.34-2.83l.92-.14a54.28,54.28,0,0,1,15.85.38c7.52,1.32,14.34,4.25,22.1,4.74,8.13.51,16.24-1.75,24.36-1.2a98.61,98.61,0,0,1,12.1,2.08c7.77,1.52,16.59.89,24.56,1.94,14,1.84,28.14-3.4,42.48-3.1,4.11.09,8.16.63,12.26.91a92.63,92.63,0,0,0,26.47-2,34.53,34.53,0,0,1,6.37-1.13,37.14,37.14,0,0,1,6.15.48,97.06,97.06,0,0,0,26.54-.39c4.88-.76,9.7-1.91,14.72-1.95,9.72-.09,18.21,3,27.89,3.54l20.5,1a24.86,24.86,0,0,1,4.69.53c3.34.83,5.41,2.91,7.75,4.64a19.65,19.65,0,0,0,9,3.8c3.55.47,7.22-.13,10.84,0,7.7.16,14.42,3.34,21.93,4.42,8.23,1.19,17.31-.34,23.53-4,3.27-1.91,5.86-4.38,9.79-5.68,8-2.66,18.43.47,26.63-2,4.27-1.26,7.25-3.86,11.47-5.2,11.72-3.71,26.06,3.74,38.85,2l.21,0V11.89C1897,9.69,1874.83,2.67,1851.74,3.33Z" transform="translate(0.42 0.03)"/></g><g id="Rail"><path class="cls-3" d="M1912.09,44.48a38.39,38.39,0,0,0-4.37-1.81,33.32,33.32,0,0,1-5.53-2.41c-2.41-1.41-4.75-3-7-4.49l-2-1.34a3.24,3.24,0,0,1-.55-.42,1.62,1.62,0,0,0-.34-.23c-2.5-1.29-5.82-2.78-9.14-2.79h-.08a20.91,20.91,0,0,0-9.22,2.07,1.74,1.74,0,0,1-.76,1.12c-1.18.76-2.36,1.66-3.49,2.52a49.61,49.61,0,0,1-4.66,3.25c-2.7,1.58-5.65,3.2-8.76,4.83-2.22,1.16-4.57,2.17-6.85,3.14-1.25.53-2.55,1.09-3.8,1.66-1.07.48-2.16,1-3.25,1.51-2.49,1.17-5.07,2.38-7.6,3.38l-.35.13-.36-.13a28.74,28.74,0,0,1-5.15-2.77,31.2,31.2,0,0,0-4.07-2.29,26.52,26.52,0,0,0-4.42-1.35,25.39,25.39,0,0,1-5.39-1.77,36.52,36.52,0,0,1-5.33-3.54,42.93,42.93,0,0,0-4.07-2.83c-1.36-.8-2.83-1.51-4.26-2.19a44.92,44.92,0,0,1-5.74-3.1,1.81,1.81,0,0,1-.68-1.76V32.8a14.28,14.28,0,0,0-6-1l-1.58,0-1.55,0h-1.38c-2.81,0-5.76.11-8.21,1.35a4.57,4.57,0,0,1-.78.35,2.07,2.07,0,0,0-.56.28c-1.11.78-2.22,1.68-3.28,2.56a42.36,42.36,0,0,1-4.71,3.51c-1.16.71-2.31,1.52-3.42,2.3a44.07,44.07,0,0,1-5,3.22c-3.37,1.77-6.83,3.42-10.29,4.92a35.27,35.27,0,0,1-6.29,1.83,45.22,45.22,0,0,0-4.71,1.25l-.16.06H1736l-.14-.45a31.4,31.4,0,0,0-3.53-.92,26.38,26.38,0,0,1-5-1.49c-1.85-.82-3.65-1.78-5.4-2.7-1-.54-2.08-1.11-3.12-1.63A35.47,35.47,0,0,1,1715,44c-1-.66-2-1.35-3-1.92a21.85,21.85,0,0,0-3.41-1.37,22,22,0,0,1-4.08-1.72c-1.34-.8-2.62-1.72-3.85-2.6-.92-.66-1.86-1.34-2.8-2a1.59,1.59,0,0,1-.73-1.25,18.43,18.43,0,0,0-18.52.13,2.87,2.87,0,0,1-1.11.34.62.62,0,0,0-.38.13,36.8,36.8,0,0,0-3.6,3.07,30.07,30.07,0,0,1-4.84,3.92,35.53,35.53,0,0,1-5.8,2.65c-1.48.57-2.88,1.12-4.21,1.79-1.08.55-2.17,1.15-3.22,1.73a65,65,0,0,1-6,3c-2.37,1-4.83,1.8-7.21,2.58l-2,.67a1.05,1.05,0,0,1-.85.92l-.09,0h-.11a1.18,1.18,0,0,1-.6-.18c-2.29-.81-4.51-1.84-6.66-2.84-1.11-.51-2.27-1-3.4-1.54l-.64-.28c-3.11-1.34-6.33-2.73-9.38-4.31a51.31,51.31,0,0,1-5.23-3.29c-1.13-.79-2.31-1.6-3.49-2.31s-2.45-1.38-3.68-2a50.23,50.23,0,0,1-5.34-3.09.71.71,0,0,0-.34-.14,3.16,3.16,0,0,1-1-.33c-2.9-1.49-6.07-1.63-9.07-1.64h-.39c-3.4,0-6.19.26-8.73,1.55l0,0s0,.06,0,.1a2.11,2.11,0,0,1-.88,1.16,47.1,47.1,0,0,1-4.55,2.76c-1,.56-2,1.15-3,1.76a32.45,32.45,0,0,1-4.62,2.28c-1.18.51-2.3,1-3.36,1.58a29.7,29.7,0,0,0-3,2,26,26,0,0,1-4,2.51,22.54,22.54,0,0,1-4.47,1.42,27.83,27.83,0,0,0-3.52,1,21.06,21.06,0,0,0-3.24,1.81,19.93,19.93,0,0,1-4.14,2.18,1.66,1.66,0,0,1-.58.08l-.41,0a1.29,1.29,0,0,1-1-.75L1537.8,53c-2.17-.63-4.42-1.28-6.57-2.14a30,30,0,0,1-5-2.77c-1.2-.76-2.32-1.48-3.51-2.08l-2.2-1.07c-2.57-1.26-5.24-2.56-7.75-4.11s-5.16-3.54-7.57-5.38l-1.13-.86A1.84,1.84,0,0,1,1503,35a1.22,1.22,0,0,1-.65-.18,1.88,1.88,0,0,1-.77-.88h0c-2.85-1.46-5.9-2.8-9-2.8a20.54,20.54,0,0,0-9.2,2.43.41.41,0,0,0-.19.16,2.81,2.81,0,0,1-.67.6,35,35,0,0,1-5,2.61,43.89,43.89,0,0,0-4,2,32.21,32.21,0,0,0-3.69,2.71,28.42,28.42,0,0,1-4.6,3.25,49.35,49.35,0,0,1-6.14,2.54c-1.5.54-3,1.1-4.49,1.75s-2.86,1.4-4.26,2.13a56,56,0,0,1-6.16,2.93l-.35.14-.36-.14-1.07-.44-.35-.16-.63-.26v-.48c-.59-.28-1.17-.58-1.74-.87-1-.51-2.08-1-3.13-1.48s-2.2-.77-3.38-1.12l-.37-.11-.08,0-.07,0c-1.48-.73-2.92-1.55-4.31-2.34-1.21-.69-2.46-1.41-3.71-2-3-1.51-5.89-3.21-8.71-4.86l-.94-.54-.86-.5-.32-.18c-2.34-1.44-5-3-7.46-4.76l-.27.06-.4-.22-.06,0-.11-.07s0,0-.16,0a2.47,2.47,0,0,1-1-.28,21.13,21.13,0,0,0-8.41-2.31c0,.54-.23,1.09-1,1.09l-1.82,0-1.82,0a13.37,13.37,0,0,0-5.21.81,1.35,1.35,0,0,1-1.3,1.79,2,2,0,0,1-.91-.25c-.86.66-1.67,1.42-2.52,2.21a26.21,26.21,0,0,1-3.8,3.14c-.82.53-1.62,1.07-2.43,1.61l-1.77,1.18-.06,0-.06,0c-1.19.57-2.43,1.09-3.62,1.59-1.36.57-2.77,1.16-4.09,1.81a51,51,0,0,1-5.63,2.28c-1.16.41-2.37.84-3.52,1.32s-2.26,1-3.35,1.5l-.1,0-.06,0-.05,0c-1.07.34-2.15.65-3.2,1l-.92.27,0,.57-.62.23-.18.07c-.06.41-.26,1.2-1.11,1.2h-.08c-1-.08-1-1.16-1-1.68-.78-.24-1.58-.47-2.37-.69a50.36,50.36,0,0,1-5-1.59,29.72,29.72,0,0,0-3.46-1.06,26.24,26.24,0,0,1-4.54-1.5c-.86-.4-1.75-.8-2.62-1.18-1.66-.73-3.38-1.48-5-2.37s-3.3-2-4.87-3.07c-.79-.54-1.59-1.07-2.39-1.59a26.21,26.21,0,0,1-3.8-3.14c-.85-.79-1.66-1.55-2.52-2.21a2,2,0,0,1-.9.25,1.35,1.35,0,0,1-1.31-1.79,13.34,13.34,0,0,0-5.2-.81c-.61,0-1.22,0-1.82,0l-1.83,0c-.76,0-.95-.55-1-1.09a21.22,21.22,0,0,0-8.42,2.31,2.4,2.4,0,0,1-1,.28c-.12,0-.12,0-.18,0-2.75,1.8-5.64,3.48-8.43,5.1l-1,.6-.93.54c-2.83,1.65-5.75,3.35-8.72,4.86-1.25.63-2.5,1.36-3.71,2a60.67,60.67,0,0,1-5.48,2.91c-1.19.52-2.41,1.11-3.59,1.68-2,.95-4,1.93-6.05,2.72l-.35.14-.36-.14a56,56,0,0,1-6.16-2.93c-1.39-.73-2.83-1.49-4.26-2.13s-3-1.21-4.48-1.75a50.12,50.12,0,0,1-6.15-2.54,28.42,28.42,0,0,1-4.6-3.25,32.21,32.21,0,0,0-3.69-2.71,42.65,42.65,0,0,0-4-2,35.22,35.22,0,0,1-5.06-2.62,2.72,2.72,0,0,1-.66-.59.47.47,0,0,0-.2-.17,20.58,20.58,0,0,0-9.18-2.42c-3.08,0-6.13,1.34-9,2.79h0a1.9,1.9,0,0,1-.76.88,1.26,1.26,0,0,1-.66.18,1.84,1.84,0,0,1-1.06-.41l-1.13.86c-2.41,1.84-4.91,3.74-7.56,5.38s-5.18,2.85-7.76,4.11L1170.32,46a40.33,40.33,0,0,0-3.51,2.08,30.1,30.1,0,0,1-5,2.77c-2.15.86-4.4,1.51-6.57,2.14l-2.46.73a1.33,1.33,0,0,1-1,.75l-.41,0a1.73,1.73,0,0,1-.58-.08,19.6,19.6,0,0,1-4.13-2.18,20.69,20.69,0,0,0-3.25-1.81,27.35,27.35,0,0,0-3.52-1,23,23,0,0,1-4.47-1.42,26,26,0,0,1-4-2.51,27.16,27.16,0,0,0-3-2c-1.06-.58-2.18-1.07-3.36-1.58a32.34,32.34,0,0,1-4.61-2.28c-1-.61-2-1.2-3-1.76a47.93,47.93,0,0,1-4.57-2.77,2.16,2.16,0,0,1-.86-1.15.76.76,0,0,0,0-.11l0,0c-2.51-1.28-5.3-1.54-8.71-1.54h-.38c-3,0-6.18.15-9.1,1.65a3.15,3.15,0,0,1-.93.32.7.7,0,0,0-.36.15,50.74,50.74,0,0,1-5.33,3.08c-1.22.63-2.49,1.29-3.67,2s-2.36,1.52-3.5,2.31a51.16,51.16,0,0,1-5.22,3.29c-3.06,1.58-6.28,3-9.39,4.31l-.63.28c-1.14.49-2.3,1-3.41,1.54-2.15,1-4.37,2-6.65,2.84a1.19,1.19,0,0,1-.61.18h-.09l-.1,0a1,1,0,0,1-.86-.92l-2-.67c-2.38-.78-4.83-1.58-7.2-2.58a65.16,65.16,0,0,1-6-3c-1.05-.58-2.14-1.18-3.21-1.73-1.34-.67-2.74-1.22-4.22-1.79a35.92,35.92,0,0,1-5.8-2.65,30.07,30.07,0,0,1-4.84-3.92,36.18,36.18,0,0,0-3.62-3.08.54.54,0,0,0-.36-.12,2.92,2.92,0,0,1-1.13-.35,18.43,18.43,0,0,0-18.5-.12,1.61,1.61,0,0,1-.73,1.26c-.94.6-1.88,1.28-2.79,1.94-1.24.88-2.51,1.8-3.86,2.6a22,22,0,0,1-4.08,1.72,21.85,21.85,0,0,0-3.41,1.37c-1,.57-2,1.26-3,1.92a36.17,36.17,0,0,1-3.81,2.33c-1,.51-2.1,1.08-3.12,1.62-1.74.92-3.55,1.88-5.4,2.7a26.17,26.17,0,0,1-5,1.49,33.08,33.08,0,0,0-3.53.91l-.14.46h-.91l-.19-.06a44.38,44.38,0,0,0-4.7-1.25A35.17,35.17,0,0,1,945,50.36c-3.46-1.5-6.93-3.15-10.3-4.92a45,45,0,0,1-5-3.22c-1.11-.78-2.26-1.59-3.42-2.3a42.23,42.23,0,0,1-4.7-3.51c-1.07-.88-2.17-1.78-3.3-2.57a2,2,0,0,0-.55-.27,5.55,5.55,0,0,1-.8-.36c-2.43-1.23-5.38-1.34-8.19-1.34h-1.37l-1.56,0-1.58,0a14.31,14.31,0,0,0-6,1v.07a1.83,1.83,0,0,1-.68,1.77,45.43,45.43,0,0,1-5.74,3.09c-1.43.69-2.9,1.39-4.26,2.19a42.93,42.93,0,0,0-4.07,2.83,36,36,0,0,1-5.33,3.54,25.39,25.39,0,0,1-5.39,1.77,26.82,26.82,0,0,0-4.42,1.35,31.11,31.11,0,0,0-4.06,2.29,29.17,29.17,0,0,1-5.16,2.77l-.35.13-.36-.13c-2.53-1-5.1-2.21-7.59-3.38-1.1-.52-2.18-1-3.25-1.51-1.26-.57-2.55-1.13-3.81-1.66-2.27-1-4.63-2-6.85-3.14-3.11-1.63-6.06-3.25-8.75-4.83a47.13,47.13,0,0,1-4.66-3.25c-1.14-.86-2.32-1.76-3.51-2.53a1.66,1.66,0,0,1-.74-1.11A21.11,21.11,0,0,0,810,31l0-.5h0V31c-3.31,0-6.63,1.5-9.15,2.8a1.34,1.34,0,0,0-.32.22,5,5,0,0,1-.56.43l-2,1.32c-2.27,1.52-4.61,3.09-7,4.5a34.06,34.06,0,0,1-5.53,2.41A38.56,38.56,0,0,0,781,44.48a31.17,31.17,0,0,0-4.06,2.64,29.67,29.67,0,0,1-5.14,3.19,48.15,48.15,0,0,1-6.83,2c-1,.25-1.94.48-2.73.7v.66l-1.32-.43-2.61-.92c-1.81-.62-3.68-1.26-5.1-1.85a35.22,35.22,0,0,0-3.38-1.12,30.46,30.46,0,0,1-4.32-1.53c-2.38-1.12-4.69-2.35-7.24-3.71a33.77,33.77,0,0,1-4.34-3c-1.06-.81-2.16-1.64-3.29-2.34-2.52-1.54-5.12-3.13-7.62-4.85l-.07,0a2.29,2.29,0,0,1-1,.25,1.55,1.55,0,0,1-.79-.2,18.54,18.54,0,0,0-8.81-1.86h-.15c-3.52,0-6.41.31-9.1,1.7a1.07,1.07,0,0,0-.37.3,3.38,3.38,0,0,1-.76.7c-3.71,2.68-6.63,4.64-9.44,6.34a47.78,47.78,0,0,1-6.26,3c-1.36.57-2.77,1.16-4.08,1.81a51.83,51.83,0,0,1-5.63,2.28c-1.17.41-2.37.84-3.53,1.32s-2.25,1-3.35,1.49a55.73,55.73,0,0,1-5.17,2.2c-.06.42-.27,1.19-1.11,1.19h-.07c-1-.08-1-1.16-1-1.68-.79-.24-1.59-.47-2.37-.69a51.39,51.39,0,0,1-5-1.59,28.58,28.58,0,0,0-3.46-1.06,26.52,26.52,0,0,1-4.54-1.5c-.85-.4-1.75-.8-2.61-1.18-1.66-.73-3.38-1.48-5-2.37s-3.3-2-4.86-3.07c-.8-.54-1.59-1.07-2.39-1.59a26.21,26.21,0,0,1-3.8-3.14c-.85-.79-1.66-1.55-2.53-2.21a2,2,0,0,1-.9.25,1.42,1.42,0,0,1-.75-.21,1.47,1.47,0,0,1-.56-1.58,13.32,13.32,0,0,0-5.2-.81c-.61,0-1.21,0-1.82,0l-1.83,0c-.76,0-.94-.55-1-1.09a21.31,21.31,0,0,0-8.43,2.31,2.32,2.32,0,0,1-1,.28c-.11,0-.11,0-.17,0-2.75,1.8-5.64,3.48-8.44,5.1l-1,.6-.94.54c-2.82,1.65-5.75,3.35-8.72,4.86-1.25.63-2.5,1.36-3.71,2a59.35,59.35,0,0,1-5.48,2.91c-1.18.52-2.4,1.11-3.58,1.68-2,.95-4,1.93-6,2.72l-.36.14-.35-.14a55.13,55.13,0,0,1-6.16-2.93c-1.4-.73-2.84-1.49-4.26-2.13s-3-1.21-4.49-1.75a49.35,49.35,0,0,1-6.14-2.54,28.51,28.51,0,0,1-4.61-3.25,31.27,31.27,0,0,0-3.68-2.71,43.89,43.89,0,0,0-4-2,34.7,34.7,0,0,1-5.06-2.62,2.72,2.72,0,0,1-.66-.59.44.44,0,0,0-.21-.17A20.5,20.5,0,0,0,517,31.09c-3.09,0-6.14,1.34-9,2.79h0a1.94,1.94,0,0,1-.77.88,1.22,1.22,0,0,1-.65.18,1.84,1.84,0,0,1-1.06-.41l-1.13.86c-2.42,1.84-4.91,3.74-7.57,5.38s-5.18,2.85-7.76,4.11L486.92,46A40.33,40.33,0,0,0,483.41,48a30.1,30.1,0,0,1-5,2.77A68.91,68.91,0,0,1,471.86,53l-2.46.73a1.29,1.29,0,0,1-1,.75l-.4,0a1.66,1.66,0,0,1-.58-.08,19.93,19.93,0,0,1-4.14-2.18A20.69,20.69,0,0,0,460,50.38a26.88,26.88,0,0,0-3.52-1A23,23,0,0,1,452,47.92a26.41,26.41,0,0,1-4-2.51,29.13,29.13,0,0,0-3-2c-1.07-.58-2.18-1.07-3.37-1.58A32.87,32.87,0,0,1,437,39.56c-1-.61-2-1.2-3-1.76A50.56,50.56,0,0,1,429.38,35a2.13,2.13,0,0,1-.85-1.15,1.17,1.17,0,0,1,0-.11l0,0c-2.51-1.28-5.3-1.54-8.7-1.54h-.39c-3,0-6.17.15-9.09,1.65a3,3,0,0,1-.94.32.7.7,0,0,0-.35.15,50.74,50.74,0,0,1-5.33,3.08c-1.23.63-2.49,1.29-3.68,2s-2.36,1.52-3.5,2.31A50.09,50.09,0,0,1,391.24,45c-3.06,1.58-6.27,3-9.38,4.31l-.64.28c-1.14.49-2.29,1-3.41,1.54-2.14,1-4.36,2-6.65,2.84a1.15,1.15,0,0,1-.6.18h-.09l-.1,0a1,1,0,0,1-.86-.92l-2-.67c-2.37-.78-4.83-1.58-7.2-2.58a65,65,0,0,1-6-3c-1-.58-2.14-1.18-3.22-1.73-1.33-.67-2.73-1.22-4.21-1.79a35.53,35.53,0,0,1-5.8-2.65,30.07,30.07,0,0,1-4.84-3.92,37.33,37.33,0,0,0-3.62-3.08.58.58,0,0,0-.36-.12,2.83,2.83,0,0,1-1.13-.35,18.43,18.43,0,0,0-18.5-.12,1.63,1.63,0,0,1-.74,1.26c-.93.6-1.87,1.28-2.79,1.94-1.23.88-2.51,1.8-3.85,2.6a22,22,0,0,1-4.08,1.72,21.85,21.85,0,0,0-3.41,1.37c-1,.57-2.06,1.26-3,1.92a38.35,38.35,0,0,1-3.81,2.33c-1,.51-2.1,1.08-3.12,1.62-1.75.92-3.55,1.88-5.4,2.7a26.48,26.48,0,0,1-5.05,1.49,32.29,32.29,0,0,0-3.52.91l-.14.46h-.92l-.18-.06a45.71,45.71,0,0,0-4.7-1.25,35.27,35.27,0,0,1-6.29-1.83c-3.46-1.5-6.92-3.15-10.29-4.92a43.2,43.2,0,0,1-5-3.22c-1.12-.78-2.27-1.59-3.43-2.3a43.18,43.18,0,0,1-4.7-3.51c-1.07-.88-2.17-1.78-3.3-2.57a2.08,2.08,0,0,0-.54-.27,4.72,4.72,0,0,1-.8-.36c-2.43-1.23-5.38-1.34-8.2-1.34h-1.37l-1.55,0-1.59,0a14.26,14.26,0,0,0-6,1v.07a1.82,1.82,0,0,1-.69,1.77,44.75,44.75,0,0,1-5.74,3.09c-1.42.69-2.9,1.39-4.26,2.19a42.8,42.8,0,0,0-4.06,2.83,36.52,36.52,0,0,1-5.33,3.54,25.58,25.58,0,0,1-5.39,1.77,26.52,26.52,0,0,0-4.42,1.35,31.2,31.2,0,0,0-4.07,2.29,28.74,28.74,0,0,1-5.15,2.77l-.36.13-.35-.13c-2.53-1-5.11-2.21-7.6-3.38-1.09-.52-2.18-1-3.25-1.51-1.25-.57-2.55-1.13-3.8-1.66-2.28-1-4.63-2-6.85-3.14-3.12-1.63-6.06-3.25-8.76-4.83a48.34,48.34,0,0,1-4.66-3.25c-1.14-.86-2.31-1.76-3.51-2.53a1.74,1.74,0,0,1-.74-1.11A21,21,0,0,0,126.59,31l0-.5h0V31c-3.31,0-6.63,1.5-9.15,2.8A1.58,1.58,0,0,0,117,34a3.46,3.46,0,0,1-.56.43l-2,1.32c-2.27,1.52-4.62,3.09-7,4.5A33.68,33.68,0,0,1,102,42.67a38.39,38.39,0,0,0-4.37,1.81,31.26,31.26,0,0,0-4.07,2.64,29.3,29.3,0,0,1-5.14,3.19,46.84,46.84,0,0,1-5.91,2c-1.45.42-2.95.85-4.36,1.39l-.36.14-.36-.14c-.91-.36-1.83-.7-2.75-1-2.28-.86-4.63-1.74-6.92-2.76-1.23-.55-2.51-1.07-3.75-1.57-1.94-.78-4-1.6-5.85-2.56A30.94,30.94,0,0,1,53,42.28,35.47,35.47,0,0,0,49,39.37l-2.69-1.53c-2.27-1.29-4.62-2.62-6.85-4.08-.12-.08-.16-.08-.18-.08l-.24,0a4.48,4.48,0,0,1-.62.06,2.63,2.63,0,0,1-1-.19,3.71,3.71,0,0,1-1.59-1.17,3.24,3.24,0,0,0-.25-.26,1.35,1.35,0,0,1-1.08.6h-.12l-.15,0a14.74,14.74,0,0,1-1.7-.57,15.33,15.33,0,0,0-5.38-1.23c-.27,0-.54,0-.8,0a18.28,18.28,0,0,0-7.71,2.45,31,31,0,0,0-4.1,3.24,29.25,29.25,0,0,1-5,3.81c-2.15,1.21-4.41,2.31-6.6,3.37C2,44.29,1,44.76.08,45.24v24c1.43-.74,2.83-1.62,4.19-2.48s3-1.88,4.52-2.67a39.09,39.09,0,0,1,5-2,35,35,0,0,0,5.3-2.2c3.17-1.77,6.09-3.52,9.3-5.47l.53-.32.53.33a51.53,51.53,0,0,0,5.24,2.81c1.38.67,2.8,1.36,4.2,2.16S41.63,61.12,43,62a54.56,54.56,0,0,0,5.22,3.17,32.42,32.42,0,0,0,5.64,2A41.9,41.9,0,0,1,58.93,69a42.68,42.68,0,0,1,4.75,2.62A34.08,34.08,0,0,0,69,74.41h0l0,0c2.5,1.18,5.53,1.2,8.46,1.22h1.93a16.71,16.71,0,0,0,6.94-1.07l0,0h0c2.18-.83,4.34-1.91,6.43-2.95,1.41-.7,2.86-1.42,4.33-2.08l.47-.21c3.41-1.52,6.94-3.09,10.28-4.81,2.25-1.15,4.49-2.46,6.65-3.73l2.47-1.44c2.7-1.56,5.44-3.32,8.09-5l.9-.58.53-.34.54.34c1.72,1.08,3.59,2.12,5.39,3.12,1,.55,2,1.11,3,1.67a38,38,0,0,1,3.79,2.62,30.63,30.63,0,0,0,4.12,2.77l1.55.82c2,1,4,2.09,6,3a25.74,25.74,0,0,0,4.13,1.44A34.08,34.08,0,0,1,159,70.56c2.38,1,4.84,2,7.22,2.93l.63.25h.06a19.33,19.33,0,0,0,8.35,1.77h.14a18.89,18.89,0,0,0,8.13-1.89l0,0,0,0c1.59-.59,3.24-1,4.84-1.48a43.41,43.41,0,0,0,5.88-1.91,39.92,39.92,0,0,0,5.31-3A50.63,50.63,0,0,1,204,64.57a49.26,49.26,0,0,1,4.63-2,42.11,42.11,0,0,0,5.56-2.5c2.19-1.26,4.34-2.7,6.43-4.1,1-.65,1.94-1.3,2.92-1.94l.56-.36.55.37a52.64,52.64,0,0,0,4.9,2.81c1.2.63,2.43,1.28,3.62,2s2.43,1.58,3.58,2.39a44,44,0,0,0,4.61,2.94c2.35,1.23,4.81,2.37,7.19,3.47l.37.18c1,.45,2,.94,2.9,1.41,1.53.76,3.11,1.55,4.69,2.2l.67.27c2.34,1,4.76,1.94,7.15,2.78h0l.05,0A20.68,20.68,0,0,0,273,76.14H273c3,0,5.82-1.24,8.27-2.41h.06c2.18-.87,4.37-1.87,6.49-2.84q1.5-.7,3-1.38a38.62,38.62,0,0,1,4.74-1.65A32.57,32.57,0,0,0,300.75,66c2.34-1.16,4.67-2.52,6.93-3.83q1.68-1,3.39-1.95c1.44-.81,2.87-1.53,4.26-2.22,2-1,3.9-2,5.82-3.17l.56-.34.54.36a47.5,47.5,0,0,0,5.26,3c1.25.65,2.54,1.32,3.84,2.09s2.51,1.57,3.71,2.37a58.21,58.21,0,0,0,5.53,3.36,57.64,57.64,0,0,0,6.4,2.62c1.45.52,2.94,1.06,4.39,1.68,3.11,1.32,6.44,2.58,10.82,4.08l0,0,.05,0a20.37,20.37,0,0,0,8.27,1.8h.88c2.65,0,5.43-.09,7.65-1.11l0,0,0,0a36.58,36.58,0,0,0,4-1.83c1.09-.55,2.22-1.12,3.38-1.6a32.92,32.92,0,0,0,3.91-2c1.07-.61,2.17-1.24,3.32-1.77a36.1,36.1,0,0,1,3.65-1.37,25.85,25.85,0,0,0,4-1.55c1.88-1,3.72-2.12,5.5-3.24,1-.66,2.13-1.34,3.21-2,2-1.17,4-2.56,6-3.91.91-.62,1.8-1.24,2.68-1.83l.57-.37.55.38c1,.69,2,1.49,3,2.26a47.06,47.06,0,0,0,4,2.88c1.09.67,2.14,1.43,3.15,2.17a36.58,36.58,0,0,0,3.85,2.55A18.69,18.69,0,0,0,438.45,65a23.55,23.55,0,0,1,4.43,1.42,24.6,24.6,0,0,1,3.9,2.49,20,20,0,0,0,4.07,2.5c3.12,1.27,6.31,2.39,8.73,3.22h.05l0,0a12.67,12.67,0,0,0,5.25.87h1.42l1.35,0H468l.23,0a19.06,19.06,0,0,0,7.87-1.61l.06,0,.06,0c1.26-.4,2.57-.77,3.82-1.12a65,65,0,0,0,6.81-2.18l.58-.23c3.21-1.29,6.52-2.63,9.63-4.17s6.61-3.47,10.08-5.56c1.17-.7,2.34-1.35,3.47-2a62.62,62.62,0,0,0,6.11-3.72l.55-.4.57.37c1.54,1,3,1.76,4.61,2.58,1.13.58,2.29,1.18,3.48,1.88.69.39,1.37.8,2.06,1.2,2.07,1.21,4.21,2.47,6.36,3.59,1.05.55,2.1,1.16,3.11,1.74,1.37.79,2.78,1.61,4.21,2.28s2.9,1.22,4.35,1.75c1.13.41,2.29.84,3.42,1.32a20.52,20.52,0,0,0,4.1,1.09,23.1,23.1,0,0,1,4,1l0,0h0a18.84,18.84,0,0,0,8.17,1.82c.92,0,1.87.08,2.78.15s1.83.15,2.7.15a7.61,7.61,0,0,0,3.3-.6l0,0h0A37.3,37.3,0,0,0,580,72a43.9,43.9,0,0,1,4.74-2.57c2.13-1,4.22-2.1,6.25-3.21,1.26-.7,2.57-1.42,3.89-2.09s2.72-1.3,4.07-1.91c1.88-.85,3.83-1.73,5.64-2.76L607.27,58c2.23-1.25,4.53-2.54,6.69-3.92l.57-.36.55.39c1.39,1,2.92,1.87,4.39,2.73.87.52,1.78,1,2.66,1.6,2.41,1.5,4.81,2.91,7.12,4.19,1.1.6,2.18,1.26,3.23,1.89a55.38,55.38,0,0,0,5,2.8c1.85.87,3.81,1.61,5.72,2.32,1,.37,2,.76,3.07,1.17,1.32.52,2.59,1.16,3.82,1.78a37.2,37.2,0,0,0,4.8,2.12l0,0,.05,0a9.45,9.45,0,0,0,3.93.67c.73,0,1.49,0,2.23-.07s1.54-.08,2.31-.08,1.55,0,2.31.07,1.52.08,2.25.08a9,9,0,0,0,3.76-.63l.05,0h0l2.65-.88c2.59-.84,5.26-1.72,7.8-2.77a25.32,25.32,0,0,0,5-3.08,31.78,31.78,0,0,1,4.45-2.9c1.38-.68,2.81-1.3,4.19-1.9a55.27,55.27,0,0,0,6.15-3c2.83-1.67,5.65-3.63,8.38-5.52l1.26-.87.56-.38.56.37a36,36,0,0,1,3.37,2.68A27.74,27.74,0,0,0,720,59.4c2.78,1.67,5.29,3.1,7.68,4.38a45.56,45.56,0,0,0,4.62,2c1.2.48,2.45,1,3.65,1.55,2.36,1.12,4.9,2.24,8.23,3.62,1.25.52,2.47,1.14,3.65,1.73a39.07,39.07,0,0,0,4.5,2.06h0l0,0c2.2,1,6.31,1,9,1h1.47v.08a27,27,0,0,0,6.89-1.34l0,0h0c2.19-.84,4.35-1.91,6.43-2.95,1.41-.7,2.87-1.42,4.33-2.08l.47-.21c3.42-1.52,6.94-3.09,10.29-4.81,2.24-1.15,4.48-2.46,6.65-3.73l2.46-1.44c2.71-1.56,5.45-3.32,8.09-5l.9-.58.54-.34.54.34c1.72,1.08,3.58,2.12,5.39,3.12,1,.55,2,1.11,3,1.67a38.11,38.11,0,0,1,3.8,2.62,30.55,30.55,0,0,0,4.11,2.77l1.56.82c1.95,1,4,2.09,6,3a25.62,25.62,0,0,0,4.12,1.44,34.23,34.23,0,0,1,3.93,1.32c2.37,1,4.83,2,7.21,2.93l.63.25h.06a19.41,19.41,0,0,0,8.36,1.77h.13a18.86,18.86,0,0,0,8.13-1.89l0,0,0,0c1.58-.59,3.24-1,4.84-1.48a43.41,43.41,0,0,0,5.88-1.91,39.81,39.81,0,0,0,5.3-3c1.42-.9,2.88-1.84,4.41-2.61s3.1-1.39,4.64-2a42.11,42.11,0,0,0,5.56-2.5c2.19-1.26,4.34-2.7,6.42-4.1L907,54l.55-.36.55.37A51.54,51.54,0,0,0,913,56.86c1.19.63,2.42,1.28,3.61,2s2.44,1.58,3.59,2.39a43.83,43.83,0,0,0,4.6,2.94c2.35,1.23,4.81,2.37,7.19,3.47l.38.18c1,.45,1.95.94,2.9,1.41,1.53.76,3.11,1.55,4.69,2.2l.66.27c2.34,1,4.76,1.94,7.16,2.78h0l0,0a20.73,20.73,0,0,0,8.55,1.63h.05c2.95,0,5.81-1.24,8.26-2.41h.06c2.19-.87,4.37-1.87,6.49-2.84q1.51-.7,3-1.38A38.19,38.19,0,0,1,979,67.84,32.94,32.94,0,0,0,984.15,66c2.33-1.16,4.67-2.52,6.92-3.83l3.39-1.95c1.44-.81,2.88-1.53,4.26-2.22,2-1,3.9-2,5.83-3.17l.55-.34.54.36a47.5,47.5,0,0,0,5.26,3c1.25.65,2.54,1.32,3.85,2.09s2.5,1.57,3.71,2.37a55.8,55.8,0,0,0,5.53,3.36,58.28,58.28,0,0,0,6.39,2.62c1.45.52,2.95,1.06,4.39,1.68,3.11,1.32,6.45,2.58,10.82,4.08l.05,0,0,0a20.44,20.44,0,0,0,8.27,1.8h.89c2.65,0,5.42-.09,7.64-1.11l0,0,0,0a35,35,0,0,0,4-1.83c1.09-.55,2.22-1.12,3.39-1.6a34.52,34.52,0,0,0,3.91-2c1.06-.61,2.17-1.24,3.32-1.77a34.38,34.38,0,0,1,3.65-1.37,26.67,26.67,0,0,0,4-1.55c1.87-1,3.71-2.12,5.49-3.24,1.05-.66,2.13-1.34,3.22-2,2-1.17,4-2.56,6-3.91.9-.62,1.8-1.24,2.68-1.83l.56-.37.56.38c1,.69,2,1.49,3,2.26a48.71,48.71,0,0,0,4,2.88c1.1.67,2.14,1.43,3.16,2.17a36.47,36.47,0,0,0,3.84,2.55,18.77,18.77,0,0,0,4.52,1.52,23.79,23.79,0,0,1,4.43,1.42,25.06,25.06,0,0,1,3.9,2.49,20,20,0,0,0,4.06,2.5c3.13,1.27,6.31,2.39,8.74,3.22h0l0,0a12.6,12.6,0,0,0,5.24.87h1.43l1.34,0h.26l.24,0a19.09,19.09,0,0,0,7.87-1.61l0,0,.06,0c1.27-.4,2.57-.77,3.83-1.12a64.8,64.8,0,0,0,6.8-2.18l.59-.23c3.2-1.29,6.52-2.63,9.63-4.17s6.6-3.47,10.08-5.56c1.17-.7,2.34-1.35,3.46-2a62.77,62.77,0,0,0,6.12-3.72l.55-.4.57.37c1.54,1,3,1.76,4.61,2.58,1.12.58,2.28,1.18,3.48,1.88l2,1.2c2.08,1.21,4.22,2.47,6.36,3.59,1.06.55,2.1,1.16,3.12,1.74,1.36.79,2.78,1.61,4.2,2.28s2.9,1.22,4.35,1.75c1.13.41,2.3.84,3.42,1.32a20.44,20.44,0,0,0,4.11,1.09,23.22,23.22,0,0,1,4,1l0,0h0a18.88,18.88,0,0,0,8.17,1.82c.93,0,1.87.08,2.78.15s1.84.15,2.71.15a7.61,7.61,0,0,0,3.3-.6l0,0h0a36.69,36.69,0,0,0,5.4-2.82,45.88,45.88,0,0,1,4.74-2.57c2.13-1,4.23-2.1,6.25-3.21,1.27-.7,2.58-1.42,3.89-2.09s2.73-1.3,4.07-1.91c1.89-.85,3.83-1.73,5.64-2.76.88-.5,1.76-1,2.65-1.49,2.22-1.25,4.52-2.54,6.69-3.92l.56-.36.55.39c1.4,1,2.92,1.87,4.39,2.73.88.52,1.79,1,2.67,1.6,2.41,1.5,4.8,2.91,7.12,4.19,1.09.6,2.17,1.26,3.22,1.89a55.38,55.38,0,0,0,5,2.8c1.85.87,3.82,1.61,5.72,2.32,1,.37,2.05.76,3.07,1.17,1.32.52,2.59,1.16,3.82,1.78a36.72,36.72,0,0,0,4.81,2.12l0,0,.05,0a9.47,9.47,0,0,0,3.94.67c.73,0,1.49,0,2.23-.07s1.31-.07,2-.07,1.32,0,2,.06,1.5.07,2.23.07h.68a8.93,8.93,0,0,0,3.76-.62l0,0h0l2.65-.88c2.58-.84,5.26-1.72,7.79-2.77a24.75,24.75,0,0,0,5-3.08l.09-.07.12-.05.29-.12,1-.46c1.73-.82,3.41-1.84,5-2.82l2.36-1.4.05,0,0,0a50.59,50.59,0,0,0,5.76-2.81c2.84-1.67,5.67-3.63,8.4-5.52l.82-.57.54-.38.56.36c1.2.76,2.41,1.47,3.34,2l.08,0,.07.06.31.27a28,28,0,0,0,3.77,2.91c2.77,1.67,5.28,3.1,7.67,4.38a46.56,46.56,0,0,0,4.62,2c1.21.48,2.46,1,3.66,1.55,2.36,1.12,4.9,2.24,8.22,3.62.47.19,1,.42,1.6.72l0,0,0,0,.42.25a36.5,36.5,0,0,0,5.42,2.83h0l0,0a6.75,6.75,0,0,0,2.29.55h.08l.09,0a18.79,18.79,0,0,0,3.69.54l0-.67,1-.07c.51,0,1.1-.07,1.69-.07a18.88,18.88,0,0,0,8.17-1.82h0l0,0a23.1,23.1,0,0,1,4-1,20.52,20.52,0,0,0,4.1-1.09c1.13-.48,2.29-.91,3.42-1.32,1.45-.53,3-1.09,4.35-1.75s2.84-1.49,4.21-2.28c1-.58,2-1.19,3.11-1.74,2.14-1.12,4.29-2.38,6.36-3.59l2-1.2c1.2-.7,2.36-1.3,3.48-1.88,1.58-.82,3.07-1.59,4.61-2.58l.57-.37.56.4a62.62,62.62,0,0,0,6.11,3.72c1.13.63,2.3,1.28,3.47,2,3.47,2.09,6.86,4,10.08,5.56s6.42,2.88,9.63,4.17l.58.23a65.57,65.57,0,0,0,6.8,2.18c1.26.35,2.56.72,3.83,1.12l.06,0,0,0a19.05,19.05,0,0,0,7.84,1.61l.27,0h.26l1.34,0h1.43a12.67,12.67,0,0,0,5.25-.87l0,0h0c2.42-.83,5.6-2,8.73-3.22a20,20,0,0,0,4.07-2.5,24.16,24.16,0,0,1,3.9-2.49,23.32,23.32,0,0,1,4.43-1.42,18.69,18.69,0,0,0,4.51-1.52,36.58,36.58,0,0,0,3.85-2.55c1-.74,2.06-1.5,3.15-2.17a47.06,47.06,0,0,0,4-2.88c1-.77,2-1.57,3-2.26l.56-.38.56.37c.89.59,1.78,1.21,2.69,1.83,2,1.35,4,2.74,6,3.91,1.09.64,2.18,1.32,3.22,2,1.78,1.12,3.62,2.28,5.49,3.24a26.67,26.67,0,0,0,4,1.55,35.38,35.38,0,0,1,3.66,1.37c1.14.53,2.25,1.16,3.32,1.77a32.92,32.92,0,0,0,3.91,2c1.16.48,2.29,1,3.38,1.6a35,35,0,0,0,4,1.83l0,0,0,0c2.22,1,5,1.11,7.64,1.11h.89a20.37,20.37,0,0,0,8.27-1.8l0,0,0,0c4.38-1.5,7.71-2.76,10.82-4.08,1.44-.62,2.94-1.16,4.39-1.68a57.64,57.64,0,0,0,6.4-2.62,58.21,58.21,0,0,0,5.53-3.36c1.2-.8,2.44-1.62,3.71-2.37s2.59-1.44,3.84-2.09a47.5,47.5,0,0,0,5.26-3l.54-.36.56.34c1.92,1.21,3.81,2.16,5.82,3.17,1.39.69,2.82,1.41,4.26,2.22,1.14.64,2.26,1.29,3.39,1.95,2.25,1.31,4.59,2.67,6.93,3.83a32.57,32.57,0,0,0,5.12,1.86,38.62,38.62,0,0,1,4.74,1.65q1.53.67,3,1.38c2.12,1,4.31,2,6.49,2.84h.06c2.45,1.17,5.31,2.41,8.27,2.41h0a20.68,20.68,0,0,0,8.54-1.63l0,0h0c2.39-.84,4.81-1.83,7.16-2.79l.65-.26c1.59-.65,3.17-1.44,4.7-2.2.94-.47,1.92-1,2.9-1.41l.37-.17c2.38-1.11,4.84-2.25,7.19-3.48a42.82,42.82,0,0,0,4.6-2.94c1.16-.81,2.35-1.64,3.59-2.39s2.42-1.35,3.62-2a52.64,52.64,0,0,0,4.9-2.81l.55-.37.56.36L1789,56c2.08,1.4,4.24,2.84,6.43,4.1a40.31,40.31,0,0,0,5.56,2.5c1.53.6,3.12,1.22,4.63,2s3,1.71,4.41,2.61a40.45,40.45,0,0,0,5.3,3,43.87,43.87,0,0,0,5.88,1.91c1.61.44,3.26.89,4.85,1.48l0,0,0,0a18.89,18.89,0,0,0,8.13,1.89h.14a19.33,19.33,0,0,0,8.35-1.77h.06l.64-.25c2.38-.93,4.83-1.89,7.21-2.93a33.44,33.44,0,0,1,3.92-1.32,26.09,26.09,0,0,0,4.13-1.44c2-1,4-2,6-3.06l1.55-.81a31.28,31.28,0,0,0,4.12-2.77,38,38,0,0,1,3.79-2.62c1-.56,2-1.12,3-1.67,1.8-1,3.67-2,5.39-3.12l.54-.34.53.34.89.57c2.65,1.71,5.39,3.47,8.1,5l2.46,1.44c2.17,1.27,4.41,2.58,6.65,3.73,3.35,1.72,6.88,3.29,10.29,4.81l.47.21c1.47.66,2.92,1.38,4.33,2.08,1,.52,2.12,1,3.2,1.56V49.67a38,38,0,0,1-3.87-2.55A31.17,31.17,0,0,0,1912.09,44.48Z" transform="translate(0.42 0.03)"/></g><g id="Snow_drops" data-name="Snow drops"><path class="cls-4" d="M1286.59,30c-5.73.85-11.14,2.95-16.79,4.22-17.25,3.88-34.12-5.41-51.63-7-1-.1-2.07-.16-3.1-.21a29,29,0,0,0-18.1-2.09c-5.5,1.16-11.34,4.28-16.76,5.81-2.48.89-4.44,1.89-5.92,2.39-4.08,1.38-6.9,2-10.18,3.09-11,2.51-22,4.07-33,2.16a198.48,198.48,0,0,0-22.33-6.74l-.94-.19a67.73,67.73,0,0,0-12.13-1.88c-8.33-.07-15.32,7-23.63,7.48-9,.51-16.92-5.67-25.46-8.65A64.08,64.08,0,0,0,1026,24.72a59,59,0,0,0-19.29,2.83c-3.26.84-6.27,1.55-9.82,2.42C990,31.67,953.52,41.17,947,38.8c-2.86-1-12.18-.24-15-1.4A50.62,50.62,0,0,0,918.82,34c4.76,6.2,13.35,8.22,19.89,12.45a22,22,0,0,0,3.6,1.83c.14.06,1.64.69,1.76.79.88.52,1.34.85,2.33,1.39a11.72,11.72,0,0,0,4,2.29c3.8,1.59,6.55,1,12.76-1.18,2.79-1,27.26-9.11,30.47-10.55,4.34-2.41,8.64-4.91,12.54-7.4a25,25,0,0,1,4.11.53c2.38.56,3.93,1.46,6.93,3.23a64.11,64.11,0,0,1,9.54,6.92c1.1.89,2.87,2.3,5.07,4,3.49,2.68,6.55,4.91,7.24,5.39,7.56,5.24,26.27,5.48,38.15-2.66,1.67-1.15,3.64-3.81,8.35-5.6.89-.34,10.41-5.38,11.38-5.45.81,0,1.55,0,2.22,0a45.87,45.87,0,0,1,16.7,5.1c15.27,7.86,20.55,14.89,24.42,21.66,4.76,8.35,6.44,17.38,13.79,19.27a15.65,15.65,0,0,0,11.61-1.92c7.66-4.51,10.66-12.12,13.81-19.32,1.44-3.29,3.35-6.93,7-8.13,2.28-.74,4.76-.38,7.15-.62,8.78-.91,16.12-9.88,24.57-7.84,9.36,2.26,9.24,15.34,17.48,19.84s21.68-.51,26.53-6.39c5.54-6.06,6.87-6.58,10.42-10.89a58.26,58.26,0,0,1,16.2-13.85c3.05-1.83,14.49-3.69,16.89-5.43C1303.15,31,1296.46,28.5,1286.59,30Z" transform="translate(0.42 0.03)"/><path class="cls-4" d="M1575.22,32.21c-5.88.44-5.76.21-10.56.77-10,1.18-18.7,7.47-28.65,9-5.87.9-12-.34-18.24-2-2.27-1.19-4.8-2.41-5.33-2.74-11.76-7.37-19.67-10.82-29.39-7.21a27.49,27.49,0,0,1-6.14,1.44c-7.64.53-16.3,1.14-23.64,2.56-9.36,1.8-18.09,7.1-27.62,6.84-9-.25-22.61-16-39.06-9.19,1.27,1.26,8.9,2.8,10.16,4.07,3.45,3.44,5.1,6.36,8.54,9.81a41.42,41.42,0,0,1,6.2,9.24,32.16,32.16,0,0,1,2.32,6.19c.84,2.89-.22,8.34,2.7,9,4.89,1.17,5-7.43,8.53-11,3.07-3.07,8.74-1.38,11.22,2.19s2.64,8.2,2.73,12.54q.18,8.1.34,16.2a6.51,6.51,0,0,0,.88,3.81c1.69,2.29,5.64,1.23,7.14-1.2s1.32-5.47,1.28-8.32c-.12-10.33,2.55-21.22,9.89-28.49a49.21,49.21,0,0,1,10.36-7.37,4.44,4.44,0,0,0,.55-.31c1.35-.77,2.7-1.53,4-2.3,4.47-2.06,9.71-3.17,14.21-4.08,3.16-.64,9.39-3.12,13.77-1.37a62.24,62.24,0,0,0,9.2,4.65l.73.6a64.68,64.68,0,0,0,21.91,12.21c8.29,2.77,18.17,4.36,25.17-.88,5-3.72,6.74-7.41,12.24-11.79.19-.15,4.45-2.54,4.69-2.53,7.43-4.93,7.94-7,11.15-11.28C1584.24,31.29,1576.9,32.09,1575.22,32.21Z" transform="translate(0.42 0.03)"/><path class="cls-4" d="M1751,33.51c-11.69-1.75-24.1-8.1-34.56-2.61-3.58,1.88-6.76,5.11-10.8,5.18-2.37,0-8.74-5.6-11.05-6.15a21.46,21.46,0,0,0-7.52-.68,40,40,0,0,0-6.54-.34,41,41,0,0,0-11.7,2.08c-5,1.72-10.33,3.35-16.08,4.81q-4.46,1.13-8.68,2a75.41,75.41,0,0,1-8.86.3,75.19,75.19,0,0,1-16.45-2.23l-22.81-4.24a114,114,0,0,0,11.91,9.82,116,116,0,0,0,12.73,7.93,51.92,51.92,0,0,0,12.53,4.39,51.83,51.83,0,0,0,12.33,1.08,46.91,46.91,0,0,0,16.91-8.6,46,46,0,0,0,7.1-7.1,31.91,31.91,0,0,1,8.56-5.43c3.38-1.44,6.42-2.73,8.67-1.63a25.72,25.72,0,0,0,4.8,3.51,43,43,0,0,0,5.93,2.55,28,28,0,0,1,10.7,8.24c6.35,3.39,10.52,5,11.8,4.94,2.71-.14,4.5,2.86,5,5.54s.34,5.64,2,7.81c3.58,4.73,11.24,1.32,15.18-3.11s8.27-10.23,14.15-9.45c2.1.28,4,1.43,6.12,1.7,6.72.86,11.1-7.09,11.83-13.83.27-2.53.37-5.18.62-7.77C1766.86,33.69,1758.88,34.7,1751,33.51Z" transform="translate(0.42 0.03)"/><path class="cls-4" d="M371.1,41.19a45.36,45.36,0,0,0-9.34-2,37.29,37.29,0,0,0-8.64.66c-3,.5-6.08.37-8.63,1.56,4.76,1.94,6.66,5.59,12.63,6.9,2.06.13,4.61,1,5.54,2.28a11.49,11.49,0,0,1,1.9,5.37c1.26,10.34.17,20.67,0,31.06a3.18,3.18,0,0,0,2.06,3.24c2.71,1,3.88-.14,4.46-1.27a11,11,0,0,0,1.06-5.5c-.17-7.4-.5-15.05,1.38-22.34,1-4,2.86-8,7.95-10.14,3.2-2.17,6.69-3.73,10-5.89a14.08,14.08,0,0,0,4.1-4c-1,.45-1.94.9-3,1.26C386,44.72,378,43.13,371.1,41.19Z" transform="translate(0.42 0.03)"/><path class="cls-4" d="M290.68,37.79c-6.93,1.69-20.56,3.38-27.06,1-2.86-1-12.19-.24-15-1.4A50.69,50.69,0,0,0,235.42,34c4.77,6.2,13.35,8.22,19.9,12.45a21.6,21.6,0,0,0,3.6,1.83c.14.06,1.63.69,1.75.79.88.52,1.34.85,2.33,1.39a11.67,11.67,0,0,0,4,2.29c3.8,1.59,6.55,1,12.75-1.18a74.19,74.19,0,0,0,7.64-2.73c7.71-4.29,15.33-8.86,20.72-13.1a8.81,8.81,0,0,0-1.17-.35C301.64,33.94,296,36.47,290.68,37.79Z" transform="translate(0.42 0.03)"/><path class="cls-4" d="M674.52,32.3a23.18,23.18,0,0,0-2.89,2.13c-3.92,3-10.8,6.44-16.42,7-4.69.49-14.33,2.33-15.55,1.89A18.39,18.39,0,0,0,642.1,46c5.28,4.59,12.26,1.71,14.33,6.78a11.84,11.84,0,0,1,.76,2.24c2.17,8.45,1.84,16.21.19,24.72-.45,2.31-1,4.73.07,6.93a7.25,7.25,0,0,0,7.73,3.27c8.94-11.19.24-24.64,4.1-36.81a6.77,6.77,0,0,1,.85-2.1c6.93-5.63,21.24-7.43,25.29-11.1,1.68-1.53,3.35-3.1,5.08-4.57,1-.84,1.82-1.35,2.73-2.23a3.06,3.06,0,0,0,.5-.61C699.62,33.59,678.22,30.3,674.52,32.3Z" transform="translate(0.42 0.03)"/><path class="cls-4" d="M199.62,35.33c-5-.43-9.79-2.13-14.85-2.15-4.54,0-8.82,1.34-13.12,2.35-3.42.81-14-1.56-24.06-4.08l-.83-.58a22.38,22.38,0,0,0-3.6-1.82c-.14-.06-1.64-.69-1.75-.79-.89-.52-1.35-.85-2.33-1.4-1.14-1.08-4.32-1.54-6.07-1.84-4.54-.77-5.42-.94-11.63,1.22-2.79,1-3.48.81-6.68,2.25-3.32,1.85-6.62,3.75-9.74,5.65l-.37.08q-8,1.52-15.8,3.13c-13.1,2.37-18.79,1.09-21.52-.7a31.1,31.1,0,0,0-5.69-2.51,9.37,9.37,0,0,0-6.35-.09c-1.56,2.59-12.21.23-15.59-1.29l7.22,7.05c3.48,3.19,5.8,5.77,9.11,7.91a5.49,5.49,0,0,1,.86.68,15.36,15.36,0,0,1,6.63,6.77c2,4.28,2.13,8.9,4.2,13.16a15.2,15.2,0,0,0,19.57,7.13,13.8,13.8,0,0,0,7.49-6.8,58.68,58.68,0,0,0,4.54-13.27c.29-1.34,1.73-2.32,3.58-2.76a8.67,8.67,0,0,0,5.93-5.48c.2-.6.36-1.22.51-1.84a23.87,23.87,0,0,1,4-3.12c10-6.3,22.14-2.95,28.64-.57,2.86,1,8.25,2.28,11,3.43,2.47,1,5.55,3.19,8.64,4.85a24,24,0,0,1,3.41,5.46c8.08,16.33,4.68,28.71,4.51,43.22-.09,7.55-1,15.15.55,22.62.35,1.62,1.26,3.56,3.58,3.87,3.33.44,4.92-2.74,5-5.1.87-20-4.47-37.78,2.5-60.17.71-2.29,1.15-4.73,2.38-6.93a10.19,10.19,0,0,1,0,3.35c-.35,2-.11,5,3.31,5.31a2.83,2.83,0,0,0,2.94-1.21,4.68,4.68,0,0,0,1-2c.29-1.25-.36-1.56-.88-3.16a10.36,10.36,0,0,1-.19-2.42c-.1-2.36,1.62-5.06,4.73-7h0c.56-.35,1.11-.72,1.66-1.1,3.58-2.62,11-5.46,13.64-8.6C208.2,36.17,201.13,35.45,199.62,35.33Z" transform="translate(0.42 0.03)"/><path class="cls-4" d="M540.24,31.87a9.35,9.35,0,0,1-1.16-.41c-2.36-1.3-4.34-2.93-6.72-4.21a28.83,28.83,0,0,0-18.79-2.42c-5.49,1.16-11.33,4.28-16.76,5.81l-.91.35a30.45,30.45,0,0,0-9.6.8c-5.85,1.84-12.62,3.47-18.72,4.85-6.3,1.43-14.69,3.88-20,1.13-2.41-1.25-4.42-2.85-6.81-4.12a22.68,22.68,0,0,0-14.64-1.74c8.23,5.73,15.82,10,23.13,17.26a7.39,7.39,0,0,1,1,1.23A32.61,32.61,0,0,0,458.79,57a22.37,22.37,0,0,0,18.55.49c.15-.07,4.16-2.51,4.28-2.6,4-3.15,1.85-1.56,5.71-5.31a97.29,97.29,0,0,1,10-9.11c13-7,27.39-6.25,40,.92,2.37,1.49,4.56,3.1,7.43,3.65l.34.08c4.78,1.53,7.5,2.15,9.32,4.32,2.24,2.66,2.91,5.34,3.41,8.41.6,3.68,2.09,7.69,7.43,9.27a13,13,0,0,0,9.78-1c4.26-2.5,4.06-6.31,3.56-9.78a28.07,28.07,0,0,1-.39-3.65,1.43,1.43,0,0,1,.23-.8c6.27-10.16,6.32-6.35,18.49-14.92l-27.34,1.66C562.83,38,549.54,33.81,540.24,31.87Z" transform="translate(0.42 0.03)"/><path class="cls-4" d="M882.91,35.28c-5-.42-9.78-2.13-14.85-2.14-4.54,0-8.82,1.33-13.11,2.35-3.43.8-14-1.57-24.06-4.09-.29-.19-.57-.4-.84-.57a21.6,21.6,0,0,0-3.6-1.83c-.14-.06-1.63-.69-1.75-.79-.88-.52-1.34-.85-2.33-1.39-1.14-1.09-4.32-1.55-6.07-1.85-4.54-.77-5.42-.94-11.63,1.22-2.79,1-3.48.82-6.68,2.25-6,3.33-11.91,6.83-16.79,10.22-.49,0-1,0-1.48,0-3.78.28-7.3,1.44-10.93,2.2S761,42,757.69,40.73s-5.43-4.2-9.12-5.18c-5-1.33-10.18,1.38-15.37,2.37-1,.18-1.64-.31-2.62-.25A92.76,92.76,0,0,1,748,52.59a7.43,7.43,0,0,1,1.19,1.85,10.22,10.22,0,0,1,1,3.39q2.84,17.88,4.29,35.83c.19,2.36,1.14,5.35,4.48,5.73s5.56-2.21,6.48-4.43c4.62-11.15-.33-23.14,1.5-34.67A12.08,12.08,0,0,1,770.85,53l1.41-.95h0c13-6.14,16.85-5.26,24.27-9.92,10-6.3,22.13-3,28.63-.57,2.86,1,8.25,2.28,11,3.44s6.48,3.84,10,5.54a31.87,31.87,0,0,0,6.06,3.52,13.33,13.33,0,0,0,4.32,1.12,13.19,13.19,0,0,0,4.92-.52,32.6,32.6,0,0,0,3.21-1.8c.69-.43.27-.13,2.88-1.57l1-.52a9.71,9.71,0,0,1,1.06-.74c2.44-1.39,1.44-1.19,4.5-2.11a58.76,58.76,0,0,0,6-2.84c4.21-1.94,10.14-5.85,12.79-9C891.44,36.18,884.43,35.41,882.91,35.28Z" transform="translate(0.42 0.03)"/><path class="cls-4" d="M1361,43c-5.68,1.39-16.86,2.78-22.2.83-2.34-.86-10-.2-12.27-1.15-3.33-1.38-6.58-3.12-10.4-3.58,3.91,5.08,10.49,7.53,15.86,11a18.46,18.46,0,0,0,3,1.5c.12.05,1.35.56,1.44.65.73.42,1.11.69,1.92,1.14a9.73,9.73,0,0,0,3.27,1.87c3.11,1.31,5.37.81,10.46-1a63,63,0,0,0,6.27-2.24c6.32-3.52,12.17-8.17,16.59-11.65a6.51,6.51,0,0,0-.92-.2C1369.65,39,1365.42,41.89,1361,43Z" transform="translate(0.42 0.03)"/><path class="cls-4" d="M1895,28.44c-3.2-1.43-3.89-1.28-6.68-2.25-6.21-2.16-7.09-2-11.63-1.22-1.75.3-4.93.76-6.07,1.85-1,.54-1.44.87-2.33,1.39-.11.1-1.61.73-1.75.79a21.6,21.6,0,0,0-3.6,1.83l-.74.49-.06,0c-3.9,1.92-13,6.93-17.37,8.4-3.09,1-8.24.68-11.27,1.53-6.91,1.94-14.93,3.53-21.57,1.18-1-.36-2-.81-3-1.26a14.17,14.17,0,0,0,4.09,4c3.33,2.16,6.82,3.72,10,5.89,5.09,2.11,4.63,6.23,5.67,10.27,1.88,7.28,1.54,14.94,1.38,22.33a11,11,0,0,0,1,5.5c.59,1.14,4,2.2,6.75,1.15a3.16,3.16,0,0,0,2-3.24c-.12-10.39-1.21-20.72,0-31.06a11.38,11.38,0,0,1,1.9-5.37,5.26,5.26,0,0,1,2.47-1.62q1.2-.26,2.46-.6l.61-.06a13.21,13.21,0,0,0,2.23-.77c2.59-.84,5.1-1.8,7.1-2.63,2.77-1.16,8.16-2.39,11-3.44,6.5-2.38,18.61-5.73,28.64.57,7,4.44,17.93,11.79,23.53,11.24V39.79C1912,36,1900.55,31.51,1895,28.44Z" transform="translate(0.42 0.03)"/></g></g></svg>