<?xml version="1.0" encoding="utf-8"?>
<!-- Generator: Adobe Illustrator 23.0.3, SVG Export Plug-In . SVG Version: 6.00 Build 0)  -->
<svg version="1.1" id="Layer_1" xmlns="http://www.w3.org/2000/svg" xmlns:xlink="http://www.w3.org/1999/xlink" x="0px" y="0px"
	 viewBox="2 2 1900 137.1" style="enable-background:new 0 0 1919.7 137.1;" xml:space="preserve">
<style type="text/css">
	.st0{fill:#EBEEF2;}
	.st1{fill:#F8FAFD;}
</style>
<title>snow</title>
<g id="Bottom">
	<path class="st0" d="M-5.1,97c9,0.5,11.1,0.4,19.5-1.1C25,94,30.8,90.7,40.3,88C50,85.6,60,83.8,70,82.8c21-2.3,54.6,5.9,59.8,7.3
		c15.2,4.2,18.5,6.9,35.2,10.6c9.3,2,18.8,3.4,28.4,4.3c45.9,4,84.6-37.6,140.3-32.3c31.2,2.9,67.6,20.5,71,22.2
		c19.7,9.7,25.1,15.8,39.3,16.8c22.2,1.6,30.7-19.3,59.8-21.1c7.4-0.4,15,0,22.3,1.2c8.9,1.8,12.1,4,22.2,6.6
		c7.7,1.9,15.7,3.1,23.7,3.6c15.2,0.9,24.2-2.8,39.8-6.5c21.7-5.4,44-8,66.4-7.9c13.4,0.2,26.6,1.7,39.7,4.4
		c20.8,4.5,22.7,8.5,40.5,12.2c11.8,2.4,29.9,6,50,0.8c22.8-5.9,22.5-16.8,47-23c15.1-3.8,15.2,0,39.5-3.2
		c33-4.3,34.6-11.9,55.8-11.2c14.5,0.5,13.2,3.9,43.2,8.5c11,1.7,22.9,3.5,36.2,3.5c23.2,0.1,36.3-5.3,50.3-8.2
		c22.6-4.6,53.1,3.3,114,19.3c42.6,11.2,46.2,14.6,64,14.6c26.3,0,54-7.3,64.9-10.4c16.6-4.4,23.5-7.7,42.4-11.6
		c5.2-1.1,22.9-4.6,38.9-5.2c40.8-1.5,75.8,16,102.9,29.7c0.1,0,20.7,10.4,48.5,21.4c9.3,3.7,16.5,6.3,26.1,7.2
		c16.8,1.6,30-3,36-5.1c57-20.6,79-43.3,121-49.2c35.4-4.8,75.2,3.8,89.8,7.9c6.5,1.9,14.5,3.9,30.5,8.1c21.2,5.5,25.9,6.5,32,6.9
		c11.4,0.6,22.7-1,33.4-4.8V-0.7H-5C-4.8-0.9-5.1,97-5.1,97z"/>
	<path class="st1" d="M1924.8,57.6c-6.5,1.4-55.2,12.2-72.3,17.1c-35.7,10.4-48.4,16.9-71,14c-10.9-1.4-27.1-5.4-41.5-10.2
		c-13.4-4.4-17.3-6.9-30.8-10.7c-16.7-4.5-24.9-6.8-35.5-6c-14.2,1.1-24,7.2-43.8,19.5c-18.7,11.6-21.2,16.7-35.8,22.3
		c-3.2,1.2-15.5,5.8-28.1,6.1c-20.5,0.5-31.1-10.9-72.2-39c-42.1-29-55-33.6-67.5-31.6c-9.8,1.5-19.2,5.1-27.4,10.6
		c-6.5,4.6-6.7,6.9-14.5,12.3c-5.9,4.1-14.1,9.7-25.3,10.9c-9.7,1-19.9-1.3-23-2.1l0,0c-12.6-3.3-15.4-8-25.8-12.3
		c-14.9-5.9-28.6-4.1-41.2-2.5c-4.3,0.6-11.6,1.8-40,12.3c-25.4,9.4-23.3,9.8-37.1,14.5c-21,7.1-40,13.5-63.4,12
		c-8.5-0.6-17-1.9-25.2-3.8c-8-1.9-15.9-4.3-23.5-7.2c-15-5.5-30.1-10.5-44.9-16.3c-56.3-22-107.3-19.8-107.3-19.8
		c-30.4,1.3-56.6,9.4-74.2,14.8c-32.4,10-34.7,15.5-53.6,16.3c-28.3,1.2-35.6-10.7-66.5-7.5c-11.6,1.2-10.3,2.8-38.2,8.6
		c-19.7,4.1-35,7.2-48.4,8.1c-42.3,2.8-45.5-18.4-90-18.5c-28.9-0.1-31.6,8.8-61.3,5.8c-13.8-1.4-24.3-4.4-41.8-2.1
		c-10,1.3-16.1,3.6-31.1,8.7c0,0-21.4,7.3-50.2,16.6c-52.5,16.9-119.8-13.3-140.1-22.3c-29.2-13.1-43.1-25.3-66.7-21.7
		c-17.4,2.6-41,14.1-42.3,14.7c-14.9,7.2-19.8,12.2-33.6,16.2c-10.7,3.1-21.7,4.3-32.8,3.7c-33-2.4-55.6-25.8-62-33.1V-0.7h1930
		C1924.7-0.9,1924.8,57.6,1924.8,57.6z"/>
</g>
</svg>
