<svg id="Layer_1" data-name="Layer 1" xmlns="http://www.w3.org/2000/svg" viewBox="0 0 1919.65 137.15"><defs><style>.cls-1{fill:#ebeef2;}.cls-2{fill:#f8fafd;}</style></defs><title>snow</title><g id="Bottom"><path class="cls-1" d="M.4,137.57H1919.71V36.64a86.25,86.25,0,0,0-33.24-4.8c-6,.35-10.68,1.32-31.83,6.86-15.85,4.15-23.77,6.23-30.26,8.1-14.49,4.17-54.06,12.75-89.3,7.93C1693.32,49,1671.43,26.38,1614.7,5.88c-6-2.16-19.12-6.74-35.8-5.11-9.55.93-16.74,3.56-26,7.24-27.6,11-48.11,21.29-48.16,21.31-26.94,13.52-61.75,31-102.37,29.47-15.93-.59-33.51-4.13-38.69-5.18-18.79-3.78-25.7-7.08-42.19-11.5-10.94-2.94-38.43-10.31-64.61-10.27-17.67,0-21.28,3.42-63.67,14.53-60.6,15.88-90.91,23.82-113.37,19.18-13.94-2.89-26.94-8.3-50-8.23-13.22,0-25.1,1.86-36,3.54-29.88,4.58-28.64,8.06-43,8.52-21.14.68-22.73-6.85-55.53-11.12-24.22-3.15-24.28.68-39.31-3.16-24.26-6.19-24-17-46.65-22.88-20-5.22-38.07-1.57-49.74.79-17.63,3.56-19.61,7.59-40.27,12.11a208.93,208.93,0,0,1-39.48,4.44,266.58,266.58,0,0,1-66-7.87c-15.44-3.78-24.45-7.42-39.57-6.53a139.71,139.71,0,0,0-23.59,3.64c-10.06,2.6-13.17,4.82-22.11,6.58a97.08,97.08,0,0,1-22.24,1.23c-29-1.82-37.37-22.55-59.46-21-14.09,1-19.51,7.05-39.09,16.66-3.4,1.67-39.56,19.18-70.58,22.11-55.44,5.25-93.89-36.13-139.58-32.12a254.75,254.75,0,0,0-28.17,4.31c-16.59,3.62-19.9,6.32-35,10.51-5.2,1.44-38.54,9.62-59.47,7.33a214.47,214.47,0,0,1-29.53-5.19c-9.45-2.55-15.22-5.85-25.81-7.77C11.27,39.91,9.33,39.87.29,40.33.29,40.33.58,137.75.4,137.57Z" transform="translate(-0.06 -0.42)"/><path class="cls-2" d="M1919.61,136.42H.06V80.05C6.48,72.91,29,49.61,61.84,47.32A97.7,97.7,0,0,1,94.4,51C108.09,55,113,59.9,127.79,67.1c1.36.66,24.84,12,42.11,14.63,23.45,3.58,37.27-8.62,66.3-21.64C256.4,51,323.35,21,375.51,37.84c28.54,9.21,49.88,16.48,49.88,16.48,14.93,5.09,21.06,7.33,30.91,8.66,17.46,2.35,27.92-.67,41.63-2.06,29.61-3,32.28,5.84,61,5.75,44.27-.15,47.45-21.19,89.53-18.41,13.39.89,28.55,4.05,48.14,8.12,27.78,5.79,26.45,7.44,38,8.62,30.72,3.1,38-8.74,66.1-7.53,18.82.8,21.16,6.36,53.32,16.23,17.55,5.38,43.66,13.38,73.85,14.72,0,0,50.65,2.24,106.69-19.67,14.75-5.77,29.81-10.72,44.68-16.19a178.61,178.61,0,0,1,23.45-7.19,172.18,172.18,0,0,1,25.14-3.8c23.23-1.49,42.21,4.8,63.07,11.93,13.72,4.69,11.58,5.06,36.9,14.39,28.22,10.39,35.41,11.59,39.75,12.16,12.62,1.67,26.2,3.46,41-2.47,10.35-4.15,13.2-8.86,25.65-12.2h0c3.11-.77,13.29-3.1,22.93-2.06,11.24,1.22,19.3,6.76,25.21,10.82,7.71,5.3,7.87,7.57,14.38,12.18a70.76,70.76,0,0,0,27.34,10.47c12.4,2,25.27-2.68,67.13-31.44,40.88-28.08,51.37-39.29,71.75-38.84,12.51.27,24.68,4.84,27.92,6.08,14.41,5.53,17,10.64,35.55,22.17C1646.1,67,1655.94,73.14,1670,74.2c10.42.78,18.7-1.5,35.26-6,13.34-3.67,17.25-6.17,30.56-10.59,14.27-4.74,30.42-8.73,41.27-10.13,22.47-2.91,35.11,3.64,70.58,13.93,17,4.93,65.39,15.63,71.91,17C1919.61,78.38,1919.5,136.53,1919.61,136.42Z" transform="translate(-0.06 -0.42)"/></g></svg>