<?xml version="1.0" encoding="utf-8"?>
<!-- Generator: Adobe Illustrator 23.0.3, SVG Export Plug-In . SVG Version: 6.00 Build 0)  -->
<svg version="1.1" id="Layer_1" xmlns="http://www.w3.org/2000/svg" xmlns:xlink="http://www.w3.org/1999/xlink" x="0px" y="0px"
	 viewBox="0 0 1919.7 137.1" style="enable-background:new 0 0 1919.7 137.1;" xml:space="preserve">
<style type="text/css">
	.st0{fill:#EBEEF2;}
	.st1{fill:#F8FAFD;}
</style>
<title>snow</title>
<g id="Bottom">
	<path class="st0" d="M-4.8,137.2h1929.7V35.7c-10.7-3.8-22.1-5.4-33.4-4.8c-6,0.4-10.7,1.3-32,6.9c-15.9,4.2-23.9,6.3-30.4,8.1
		c-14.6,4.2-54.4,12.8-89.8,8c-42-5.8-64-28.5-121-49.1c-6-2.2-19.2-6.8-36-5.1c-9.6,0.9-16.8,3.6-26.1,7.3
		c-27.7,11.1-48.4,21.4-48.4,21.4c-27.1,13.6-62.1,31.2-102.9,29.6c-16-0.6-33.7-4.2-38.9-5.2c-18.9-3.8-25.8-7.1-42.4-11.6
		c-11-3-38.6-10.4-65-10.3c-17.8,0-21.4,3.4-64,14.6c-60.9,16-91.4,23.9-114,19.3c-14-2.9-27.1-8.3-50.3-8.3
		c-13.3,0-25.2,1.9-36.2,3.6c-30,4.6-28.8,8.1-43.2,8.6c-21.3,0.7-22.9-6.9-55.8-11.2c-24.4-3.2-24.4,0.7-39.5-3.2
		c-24.4-6.2-24.1-17.1-46.9-23c-20.1-5.2-38.3-1.6-50,0.8c-17.7,3.6-19.7,7.6-40.5,12.2c-13.1,2.7-26.4,4.2-39.7,4.5
		c-22.4,0.1-44.7-2.5-66.4-7.9c-15.5-3.8-24.6-7.5-39.8-6.6c-8,0.5-15.9,1.8-23.7,3.7c-10.1,2.6-13.2,4.8-22.2,6.6
		c-7.4,1.3-14.9,1.7-22.4,1.2c-29.2-1.8-37.6-22.7-59.8-21.1c-14.2,1-19.6,7.1-39.3,16.7c-3.4,1.7-39.8,19.3-71,22.2
		c-55.7,5.3-94.4-36.3-140.3-32.3c-9.5,0.9-19,2.4-28.3,4.3c-16.7,3.6-20,6.4-35.2,10.6c-5.2,1.4-38.7,9.7-59.8,7.4
		c-10-1-19.9-2.8-29.7-5.2c-9.5-2.6-15.3-5.9-25.9-7.8C6.1,39,4.1,38.9-4.9,39.4C-4.9,39.4-4.7,137.3-4.8,137.2z"/>
	<path class="st1" d="M1924.7,136H-5.2V79.3c6.5-7.2,29.1-30.6,62.1-32.9C68,45.8,79,47,89.7,50.1c13.8,4,18.7,8.9,33.6,16.2
		c1.4,0.7,25,12.1,42.3,14.7c23.6,3.6,37.5-8.7,66.7-21.8c20.3-9.1,87.6-39.3,140.1-22.4c28.7,9.3,50.1,16.6,50.1,16.6
		c15,5.1,21.2,7.4,31.1,8.7c17.6,2.4,28.1-0.7,41.9-2.1c29.8-3,32.5,5.9,61.3,5.8c44.5-0.2,47.7-21.3,90-18.5
		c13.5,0.9,28.7,4.1,48.4,8.2c27.9,5.8,26.6,7.5,38.2,8.7c30.9,3.1,38.2-8.8,66.5-7.6c18.9,0.8,21.3,6.4,53.6,16.3
		c17.6,5.4,43.9,13.5,74.2,14.8c0,0,50.9,2.3,107.3-19.8c14.8-5.8,30-10.8,44.9-16.3c7.7-2.9,15.6-5.4,23.6-7.2
		c8.3-1.9,16.8-3.2,25.3-3.8c23.4-1.5,42.4,4.8,63.4,12c13.8,4.7,11.6,5.1,37.1,14.5c28.4,10.4,35.6,11.7,40,12.2
		c12.7,1.7,26.3,3.5,41.2-2.5c10.4-4.2,13.3-8.9,25.8-12.3l0,0c3.1-0.8,13.4-3.1,23.1-2.1c11.3,1.2,19.4,6.8,25.3,10.9
		c7.8,5.3,7.9,7.6,14.5,12.2c8.3,5.4,17.7,9,27.5,10.5c12.5,2,25.4-2.7,67.5-31.6c41.1-28.2,51.6-39.5,72.1-39
		c12.6,0.3,24.8,4.9,28.1,6.1c14.5,5.6,17.1,10.7,35.7,22.3c19.8,12.3,29.7,18.5,43.8,19.5c10.5,0.8,18.8-1.5,35.5-6
		c13.4-3.7,17.3-6.2,30.7-10.6c14.3-4.8,30.6-8.8,41.5-10.2c22.6-2.9,35.3,3.7,71,14c17.1,5,65.7,15.7,72.3,17.1
		C1924.7,77.6,1924.6,136.1,1924.7,136z"/>
</g>
</svg>
